<?xml version="1.0" standalone="no"?>
<!DOCTYPE svg PUBLIC "-//W3C//DTD SVG 1.1//EN" "http://www.w3.org/Graphics/SVG/1.1/DTD/svg11.dtd" >
<svg xmlns="http://www.w3.org/2000/svg">
<metadata>Generated by IcoMoon</metadata>
<defs>
<font id="icomoon" horiz-adv-x="1024">
<font-face units-per-em="1024" ascent="960" descent="-64" />
<missing-glyph horiz-adv-x="1024" />
<glyph unicode="&#x20;" d="" horiz-adv-x="512" />
<glyph unicode="&#xe000;" d="M318.188 402.708h-2.084l-67.042 102.376-81.876 120.874h-63.5v-352.79h70.124v222.208h3.042l58.208-89.084 89.376-133.124h63.876v352.79h-70.124v-223.25zM412.938 251.668h51.668l129.582 392.664h-52.25l-129-392.664zM797.438 625.958h-71.666l-123.958-352.79h74.75l23.042 72.75h122.918l21.498-72.75h76.292l-122.876 352.79zM718.562 404.75l14.292 46.584 27.208 91.664h2l27.708-93.208 13.792-45.042h-85z" />
<glyph unicode="&#xe001;" d="M185.266 918.882c-23.474-3.466-51.672-14.494-71.68-28.2-13.076-8.664-29.932-24.892-39.7-37.652-10.87-14.336-24.104-41.906-29.302-60.81l-4.412-15.754v-656.936l4.412-15.754c5.198-18.904 18.432-46.474 29.302-60.81 20.48-26.782 51.988-49.31 83.652-59.55 26.152-8.35 13.076-8.034 354.462-8.034 341.544 0 328.468-0.316 354.462 8.192 31.822 10.24 63.33 32.61 83.652 59.392 10.87 14.494 24.26 42.062 29.46 60.81l4.254 15.754v656.936l-4.412 15.754c-5.198 18.904-18.432 46.474-29.302 60.81-9.768 12.76-26.624 28.988-39.7 37.652-14.020 9.61-36.864 20.008-54.508 24.892l-15.438 4.254-322.954 0.158c-177.546 0.158-327.208-0.316-332.248-1.102zM625.428 745.118c49.782-8.192 83.81-24.576 106.024-51.042 9.452-11.186 20.48-33.398 25.048-49.94 2.836-10.87 3.308-17.014 3.466-44.11 0.158-28.514-0.158-32.768-3.466-43.954-9.61-33.398-30.562-59.076-64.434-78.926l-11.658-6.774 8.35-2.678c12.76-4.254 34.028-15.282 44.898-23.474 27.096-20.48 46.002-52.302 53.564-90.27 3.624-18.904 3.624-59.392-0.158-76.722-14.966-68.214-67.742-115.634-147.14-131.544-30.404-6.144-38.282-6.46-201.492-6.46h-159.586v609.83l165.1-0.63c147.772-0.472 166.676-0.788 181.484-3.308zM414.326 573.086v-71.838l76.092 0.63c71.364 0.788 76.722 0.946 88.222 4.096 35.918 9.768 51.516 30.404 51.516 68.214 0 28.988-10.24 47.734-32.452 58.762-19.692 9.768-40.96 11.816-124.612 11.972h-58.762v-71.838zM414.326 326.696v-83.652l83.18 0.63c93.42 0.63 96.572 0.946 119.572 12.13 26.466 12.918 38.282 34.028 38.282 68.53 0 44.426-17.644 69.002-58.29 81.29-11.5 3.624-13.706 3.624-97.202 4.254l-85.544 0.472v-83.652z" />
<glyph unicode="&#xe002;" d="M249.784 938.572c-20.836-1.894-40.012-7.932-57.296-18.112-21.782-12.786-41.078-38-51.378-67.122-10.654-30.068-14.442-68.78-14.442-149.042 0-60.256-3.078-113.884-7.814-137.322-10.18-50.548-40.842-78.368-91.982-83.458l-7.932-0.828v-42.498c0-33.62 0.356-42.498 1.538-42.498 4.498 0 22.492-2.722 28.648-4.38 29.95-7.814 54.218-30.78 64.636-61.084 8.406-24.386 12.786-77.658 12.904-155.316 0-52.916 3.434-105.36 8.406-129.39 8.76-42.972 32.792-75.646 67.714-92.456 22.61-10.892 36.224-13.14 82.868-13.97l35.16-0.592v81.92h-12.666c-7.102 0-18.822 0.592-26.28 1.184-32.91 2.96-46.998 10.418-56.112 29.714-8.76 18.822-10.18 33.028-10.3 104.058-0.118 97.902-3.788 142.058-14.798 180.414-12.548 43.21-40.486 75.882-82.63 96.718-5.682 2.842-10.3 5.446-10.3 5.8 0 0.356 4.498 2.842 9.944 5.682 32.436 16.574 58.006 40.368 71.028 66.412 8.168 15.982 16.574 43.92 20.124 66.412 3.314 20.362 4.38 44.63 5.446 123.116 1.302 88.668 2.368 101.926 9.47 120.986 5.090 13.732 11.010 19.888 25.452 26.636l7.102 3.314 103.464 0.712 0.474-281.512c0.356-254.52 0.592-282.932 2.368-295.716 5.8-42.026 13.258-66.648 26.162-86.418 20.362-31.134 49.484-48.3 92.456-54.456 15.152-2.25 45.696-2.25 63.926 0 7.814 0.948 14.56 1.776 15.152 1.776 0.474 0 0.828 19.77 0.828 43.802v43.92l-25.688-0.236c-23.676-0.236-26.4-0.118-33.62 2.25-14.916 4.972-25.216 14.798-30.66 29.596-3.552 9.352-6.748 29.832-8.168 51.732-0.828 12.548-1.302 121.696-1.302 324.838v305.898l-70.436-0.71c-43.564-0.356-70.436-0.236-70.436 0.474 0 1.302-56.232 1.184-71.028-0.236zM2128.5 899.27v-40.724l21.664-0.71c49.366-1.658 66.294-9.588 76-35.514 6.51-17.638 7.222-27.702 8.878-138.744 1.066-67.36 2.13-83.696 6.51-109.74 2.722-15.982 8.286-36.462 13.022-47.944 13.022-32.082 40.486-60.374 77.776-80.262l10.3-5.446-13.85-6.984c-31.016-15.744-55.876-40.604-69.372-69.254-8.168-17.046-15.272-40.604-18.942-62.742-3.314-19.652-4.38-44.63-5.446-123.708-1.066-80.736-1.776-92.574-6.51-111.396-2.96-11.72-9.708-23.322-16.574-28.53-12.312-9.352-30.898-13.614-62.978-14.798l-20.48-0.71v-81.328h28.294c42.736 0 59.072 2.13 81.328 10.772 38.474 14.916 63.69 46.288 75.528 93.994 6.392 25.688 7.694 43.446 8.996 127.26 2.012 124.064 5.208 149.99 22.018 178.756 5.446 9.47 22.256 26.4 31.608 31.844 12.194 7.102 28.056 11.838 46.168 13.732l7.932 0.828v84.76l-7.932 0.828c-18.112 1.894-33.976 6.63-46.168 13.732-3.788 2.25-11.72 8.878-17.758 14.798-9.708 9.708-11.484 12.074-17.284 24.268-13.732 28.174-16.456 53.508-18.586 167.984-1.776 99.204-4.972 128.444-17.046 158.040-10.536 25.808-30.306 48.062-54.338 60.966-23.558 12.786-45.576 16.574-95.060 16.574h-27.702v-40.604zM796.116 728.446c-52.206-5.328-96.836-22.848-133.18-52.206-11.72-9.47-33.266-31.726-41.788-43.21-27.82-37.29-44.63-82.394-52.444-140.756-2.486-18.942-3.552-71.384-1.776-92.456 5.328-62.506 22.492-112.344 52.916-152.83 33.62-44.748 83.222-75.646 140.756-87.602 25.334-5.328 34.922-6.156 69.254-6.156 35.040 0 46.88 1.184 72.804 7.34 82.156 19.296 140.992 76.238 166.682 160.998l2.96 9.708-3.078 0.592c-3.788 0.828-91.39 12.548-93.284 12.548-0.828 0-1.776-1.302-2.13-3.078-1.42-5.564-11.484-27.346-17.52-38-16.1-28.174-34.568-46.288-60.73-59.072-39.776-19.532-94.35-19.178-136.138 0.71-27.464 13.258-52.324 36.58-68.424 64.518-14.442 24.742-24.15 59.546-27.582 98.020l-0.71 9.116h412.558l-0.71 34.686c-0.828 44.156-3.788 66.412-13.378 100.032-21.428 75.764-71.976 133.534-140.164 160.406-30.66 12.074-54.1 16.336-92.338 16.81-15.272 0.236-29.95 0.118-32.554-0.118zM854.834 649.368c29.24-5.208 55.758-19.652 77.54-42.38 15.508-16.1 24.386-31.016 31.844-53.39 4.616-13.732 9.588-37.29 10.772-50.786l0.828-9.234h-308.264l0.592 3.906c0.356 2.012 0.948 6.984 1.302 10.892 4.38 41.67 25.216 82.512 55.048 107.608 24.978 21.072 51.496 32.082 85.826 35.514 8.642 0.828 34.212-0.356 44.512-2.13zM1312.258 727.854c-41.196-4.38-84.524-19.414-110.094-38.238-32.2-23.676-53.864-59.072-59.902-98.020-2.25-14.56-0.828-42.736 2.96-56.942 9.708-37.29 31.844-65.938 66.412-85.944 22.492-12.904 70.318-28.766 145.61-48.182 78.014-20.124 98.966-27.938 113.764-42.498 12.43-12.312 18.35-29.596 16.456-47.826-2.012-18.704-9.234-32.792-24.742-48.062-12.548-12.312-25.216-19.77-42.736-24.86-30.424-8.878-72.924-9.826-106.070-2.368-49.956 11.128-82.748 45.222-93.284 97.072-1.302 6.392-2.604 11.72-2.842 12.074-0.71 0.592-89.378-12.904-91.036-13.97s0.118-10.654 5.090-28.53c10.418-37.408 27.11-67.122 50.786-90.916 30.424-30.306 69.134-47.352 125.484-55.284 21.9-2.96 80.262-2.96 100.032 0.118 30.66 4.736 57.652 13.14 82.512 25.808 34.568 17.52 60.492 43.090 77.066 76.12 11.128 22.492 16.456 45.104 16.456 70.436-0.118 41.908-12.312 73.042-39.066 99.204-26.872 26.28-59.19 38.948-190.24 74.698-73.278 20.006-84.762 24.032-100.032 35.514-8.168 6.156-13.496 12.786-18.23 22.61-3.434 7.34-3.67 8.406-3.67 21.9 0 12.786 0.356 14.916 3.078 20.716 4.38 9.352 12.904 20.006 20.836 26.28 17.52 13.732 38.118 19.888 74.58 22.374 36.58 2.604 64.282-1.658 87.958-13.258 10.654-5.328 13.732-7.576 23.084-16.928 15.034-15.152 21.9-27.702 27.11-49.484 1.302-5.8 2.96-10.418 3.67-10.418 4.38 0.236 89.496 12.666 89.97 13.258 1.066 0.948-4.854 26.636-8.996 39.422-4.38 13.378-13.378 32.318-20.006 42.026-25.926 38.238-80.618 64.4-149.398 71.62-18.586 1.894-56.468 2.13-72.568 0.474zM1817.748 727.854c-41.196-4.38-84.524-19.414-110.094-38.238-32.2-23.676-53.864-59.072-59.902-98.020-2.25-14.56-0.828-42.736 2.96-56.942 9.708-37.29 31.844-65.938 66.412-85.944 22.492-12.904 70.318-28.766 145.61-48.182 78.014-20.124 98.966-27.938 113.764-42.498 12.43-12.312 18.35-29.596 16.456-47.826-2.012-18.704-9.234-32.792-24.742-48.062-12.548-12.312-25.216-19.77-42.736-24.86-30.424-8.878-72.924-9.826-106.070-2.368-49.956 11.128-82.748 45.222-93.284 97.072-1.302 6.392-2.604 11.72-2.842 12.074-0.71 0.592-89.378-12.904-91.036-13.97s0.118-10.654 5.090-28.53c10.418-37.408 27.11-67.122 50.786-90.916 30.424-30.306 69.134-47.352 125.484-55.284 21.9-2.96 80.262-2.96 100.032 0.118 30.66 4.736 57.652 13.14 82.512 25.808 34.568 17.52 60.492 43.090 77.066 76.12 11.128 22.492 16.456 45.104 16.456 70.436-0.118 41.908-12.312 73.042-39.066 99.204-26.872 26.28-59.19 38.948-190.24 74.698-73.278 20.006-84.762 24.032-100.032 35.514-8.168 6.156-13.496 12.786-18.23 22.61-3.434 7.34-3.67 8.406-3.67 21.9 0 12.786 0.356 14.916 3.078 20.716 4.38 9.352 12.904 20.006 20.836 26.28 17.52 13.732 38.118 19.888 74.58 22.374 36.58 2.604 64.282-1.658 87.958-13.258 10.654-5.328 13.732-7.576 23.084-16.928 15.034-15.152 21.9-27.702 27.11-49.484 1.302-5.8 2.96-10.418 3.67-10.418 4.38 0.236 89.496 12.666 89.97 13.258 1.066 0.948-4.854 26.636-8.996 39.422-4.38 13.378-13.378 32.318-20.006 42.026-25.926 38.238-80.618 64.4-149.398 71.62-18.586 1.894-56.468 2.13-72.568 0.474z" horiz-adv-x="2438" />
<glyph unicode="&#xe003;" d="M1270.902 739.486l-24.81-49.396-3.308 5.79c-5.414 9.474-17.292 27.066-23.834 35.186-17.668 21.954-41.726 38.042-66.012 44.132-9.774 2.406-28.796 2.482-37.666 0.076-17.368-4.736-33.832-14.886-49.246-30.45-18.344-18.42-33.456-43.080-46.012-75.034-13.834-35.11-20.826-69.62-23.156-114.654-2.556-48.944 4.21-96.46 19.622-137.736 3.834-10.074 9.022-22.254 9.398-21.878 0.15 0.15-0.226 2.706-0.828 5.79-3.684 19.172-5.188 57.966-3.384 85.71 1.88 28.796 7.444 56.012 18.27 89.468 11.128 34.584 24.284 57.29 45.712 79.318 21.578 22.18 40.9 31.878 66.312 33.306 18.194 0.978 32.254-3.608 52.402-17.066 19.096-12.782 36.84-33.006 51.276-58.492 2.18-3.834 4.21-6.692 4.512-6.39 1.128 1.278 49.020 93.678 49.32 95.182 0.226 1.278-12.63 82.778-13.534 85.784-0.15 0.376-11.428-21.502-25.036-48.644zM36.464 783.168c0.226-0.978 45.336-153.3 100.22-338.552l99.768-336.822h8.872l62.478 209.16c34.358 115.106 62.628 209.236 62.854 209.236s28.494-94.13 62.854-209.236l62.478-209.16h8.796l85.934 289.982c84.808 286.224 86.010 290.058 89.844 296.75l3.984 6.842h141.644l-2.556-4.286c-1.428-2.406-27.742-47.968-58.568-101.348l-56.086-96.912v-40.3h22.104c23.382 0 33.156-0.676 44.96-3.008 43.606-8.872 71.8-37.516 82.1-83.528 5.714-25.488 6.39-56.838 1.88-83.378-7.068-41.802-27.894-77.214-53.306-90.822-10.15-5.488-15.112-6.54-29.322-6.466-10.826 0.076-13.308 0.3-19.622 1.954-16.992 4.586-28.118 11.202-41.652 24.886-13.158 13.308-22.33 27.142-31.276 46.914-2.256 5.038-3.984 8.044-4.586 7.894-0.902-0.226-55.336-22.706-63.906-26.39l-3.608-1.504 3.008-8.42c18.496-51.802 52.328-93.002 93.152-113.376 19.322-9.698 37.666-14.51 60.146-15.788 39.772-2.256 75.56 7.97 104.656 30.074 8.196 6.166 22.706 20.3 29.622 28.87 27.066 33.456 42.854 71.5 49.32 118.79 2.18 16.090 2.782 50.222 1.128 67.29-6.692 69.846-36.69 125.030-85.032 156.608-9.322 6.090-24.36 13.608-35.712 17.818-4.736 1.804-8.946 3.534-9.248 3.76-0.3 0.3 27.142 48.344 61.050 106.836l61.726 106.31v40.976h-329.004l-60.522-205.628c-33.232-113.076-60.598-205.628-60.824-205.628s-25.938 86.912-57.064 193.072c-31.202 106.16-58.418 198.634-60.448 205.628l-3.76 12.556h-43.908c-41.502 0-43.908-0.076-43.532-1.278 0.226-0.752 9.248-31.050 19.998-67.29l19.622-65.86-40.824-138.412c-22.48-76.16-40.976-138.412-41.2-138.412-0.226 0-27.592 92.55-60.824 205.628l-60.448 205.628h-87.74l0.376-1.654zM1388.264 783.394c-10.976-2.856-19.774-7.518-27.292-14.586-27.742-26.164-28.194-68.266-1.052-93.904 22.18-20.902 53.23-23.682 78.792-6.992 14.812 9.624 24.434 23.532 27.818 40.224 1.654 8.27 1.128 22.856-1.128 30.374-6.316 21.202-22.104 37.292-43.306 44.058-7.444 2.406-26.088 2.856-33.832 0.828zM1420.218 774.372c18.42-6.014 32.554-20.75 37.366-39.17 1.804-6.842 1.804-21.954 0-28.57-4.21-15.262-14.586-27.668-29.396-35.11-7.744-3.91-15.262-5.638-24.51-5.714-9.698-0.076-15.188 1.278-24.736 5.94-5.864 2.932-8.27 4.662-13.608 10-14.134 13.984-19.698 30.976-16.24 49.246 2.256 11.728 7.068 20.526 16.24 29.848 5.338 5.338 7.594 6.992 13.534 10 9.698 4.736 14.586 5.79 26.69 5.414 7.368-0.226 10.976-0.676 14.66-1.88zM1378.114 722.496v-36.164h13.532v30.9l13.758-0.452 7.142-15.188 7.218-15.262h15.488l-7.444 14.886c-4.060 8.12-7.594 15.488-7.894 16.39-0.376 1.278 0 1.73 2.406 2.406 8.044 2.406 12.932 9.398 12.932 18.57 0 6.616-1.954 10.976-6.616 14.436-5.864 4.436-8.872 4.962-30.75 5.338l-19.774 0.3v-36.164zM1415.63 747.608c4.21-2.482 5.638-5.038 5.714-10 0-8.796-3.91-11.202-19.472-11.954l-10.224-0.452v24.434l10.752-0.3c9.022-0.15 11.052-0.452 13.232-1.73zM966.108 309.362c0-1.278 12.254-37.066 15.488-45.336 4.36-11.278 15.864-34.66 22.856-46.84 12.556-21.652 28.42-42.63 44.358-58.644 26.39-26.614 52.704-41.050 84.958-46.764 7.518-1.278 34.584-1.278 42.102 0 22.404 3.984 42.102 12.18 59.396 24.886 29.998 21.878 55.862 51.952 75.034 87.062l4.586 8.42-6.316 32.78c-3.458 18.12-6.39 33.006-6.616 33.156-0.15 0.15-3.384-5.038-7.292-11.578-9.098-15.338-19.622-31.202-26.088-39.246-2.782-3.458-10.676-11.954-17.518-18.796-19.246-19.322-34.208-30.6-52.028-39.020-26.54-12.63-46.238-16.842-70.898-15.112-17.668 1.202-27.592 3.384-42.63 9.474-21.804 8.722-38.344 20.15-60.298 41.576-19.472 19.172-27.894 30.826-50.222 69.544-8.496 14.736-8.872 15.412-8.872 14.436z" horiz-adv-x="1502" />
<glyph unicode="&#xe00f;" d="M832 0l192 512h-832l-192-512zM128 576l-128-576v832h288l128-128h416v-128z" />
<glyph unicode="&#xe010;" d="M0 640h1024l-64-640h-896l-64 640zM928 768l32-64h-896l64 128h352l32-64h416z" />
<glyph unicode="&#xe016;" d="M544 960l-96-96 96-96-224-256h-224l176-176-272-360.616v-39.384h39.384l360.616 272 176-176v224l256 224 96-96 96 96-480 480zM448 416l-64 64 224 224 64-64-224-224z" />
<glyph unicode="&#xe042;" d="M128 64h896v-128h-1024v1024h128zM288 128c-53.020 0-96 42.98-96 96s42.98 96 96 96c2.828 0 5.622-0.148 8.388-0.386l103.192 171.986c-9.84 15.070-15.58 33.062-15.58 52.402 0 53.020 42.98 96 96 96s96-42.98 96-96c0-19.342-5.74-37.332-15.58-52.402l103.192-171.986c2.766 0.238 5.56 0.386 8.388 0.386 2.136 0 4.248-0.094 6.35-0.23l170.356 298.122c-10.536 15.408-16.706 34.036-16.706 54.11 0 53.020 42.98 96 96 96s96-42.98 96-96c0-53.020-42.98-96-96-96-2.14 0-4.248 0.094-6.35 0.232l-170.356-298.124c10.536-15.406 16.706-34.036 16.706-54.11 0-53.020-42.98-96-96-96s-96 42.98-96 96c0 19.34 5.74 37.332 15.578 52.402l-103.19 171.984c-2.766-0.238-5.56-0.386-8.388-0.386s-5.622 0.146-8.388 0.386l-103.192-171.986c9.84-15.068 15.58-33.060 15.58-52.4 0-53.020-42.98-96-96-96z" />
<glyph unicode="&#xe04a;" d="M953.396 885.358l-4.028 4.042c-94.148 94.134-248.194 94.134-342.326 0l-218.106-218.136c-94.134-94.132-94.134-248.176 0-342.31l4.026-4.026c7.832-7.848 16.146-14.924 24.736-21.458l79.848 79.85c-9.302 5.494-18.126 12.072-26.116 20.060l-4.042 4.042c-51.114 51.098-51.114 134.272 0 185.39l218.128 218.112c51.116 51.118 134.274 51.118 185.386 0l4.042-4.024c51.1-51.116 51.1-134.292 0-185.39l-98.686-98.686c17.132-42.308 25.248-87.4 24.538-132.386l152.604 152.604c94.134 94.136 94.134 248.178-0.004 342.316zM631.042 571.066c-7.832 7.832-16.146 14.922-24.736 21.44l-79.848-79.832c9.304-5.496 18.126-12.074 26.116-20.062l4.042-4.040c51.116-51.116 51.116-134.272 0-185.388l-218.13-218.134c-51.118-51.102-134.276-51.102-185.388 0l-4.042 4.042c-51.098 51.12-51.098 134.276 0 185.388l98.688 98.686c-17.134 42.306-25.246 87.402-24.538 132.386l-152.602-152.598c-94.136-94.132-94.136-248.178 0-342.324l4.026-4.032c94.152-94.128 248.192-94.128 342.328 0l218.11 218.118c94.134 94.132 94.134 248.194 0 342.326l-4.026 4.024z" />
<glyph unicode="&#xe091;" d="M955.008 192c43.872 75.36 68.992 162.496 68.992 256 0 282.752-229.248 512-512 512s-512-229.248-512-512 229.248-512 512-512c141.376 0 269.376 57.248 361.984 150.016l-90.624 90.624c-69.472-69.632-165.472-112.64-271.36-112.64-211.744 0-384 172.256-384 384s172.256 384 384 384 384-172.256 384-384c0-45.504-8.736-88.992-23.36-129.504l-1.024 1.504h-103.616v382.624h-256c-141.376 0-256-114.624-256-256s114.624-256 256-256c58.752 0 112.256 20.64 155.488 53.888 23.264-31.008 58.752-52.512 100.512-52.512h187.008zM640 511.744v-65.12c0-70.624-57.504-128-128-128s-128 57.376-128 128 57.504 128 128 128h128v-62.88z" />
<glyph unicode="&#xe600;" d="M1093.473 793.555c-98.058-13.388-170.064-77.433-204.8-182.366-43.059-129.176-25.69-232.3 44.868-268.122 39.44-19.901 48.124-20.987 208.418-22.434 120.492-1.447 149.077-0.724 152.334 3.257 4.342 5.066 21.71 63.322 23.519 78.881 1.086 9.046 0.724 9.046-26.776 10.131-15.559 0.724-28.223 1.447-28.223 2.171 0 0.362 6.513 17.006 14.473 36.546 37.269 91.907 51.743 157.399 44.144 202.629-7.96 47.763-38.717 94.801-75.624 114.702-37.269 20.263-103.847 31.118-152.334 24.605zM1163.669 688.984c32.204-14.835 51.743-54.276 45.23-93.354-3.98-24.605-46.315-171.511-51.019-176.215-1.809-1.447-29.671-2.171-62.236-1.447-77.795 1.809-97.334 10.131-109.999 45.23-6.875 20.263-6.151 39.802 3.98 91.183 15.559 77.071 40.888 116.512 86.479 133.88 24.605 9.77 67.302 10.131 87.565 0.724zM2663.847 736.746c-5.789-7.599-36.907-50.295-69.473-95.163s-65.493-90.459-73.815-101.314l-14.473-19.539-7.237 28.585-7.599 28.947-54.999 1.086c-36.546 0.724-55.361-0.362-55.361-2.895 0-9.408 19.539-84.308 28.947-112.531 12.664-36.184 13.75-61.151 5.428-101.676-3.257-14.473-6.513-29.309-7.599-32.565-1.809-6.151 2.171-6.513 52.466-6.513h54.276l3.98 20.263c8.684 41.611 18.454 64.407 39.44 91.907 38.717 50.295 231.938 311.18 231.938 312.989 0 1.086-26.052 1.809-57.532 1.809h-57.532l-10.855-13.388zM290.555 722.273c-26.052-53.552-2.171-118.321 54.999-148.715 16.283-8.684 22.072-9.77 54.276-9.77 34.736 0 37.269 0.362 54.276 11.579 16.283 10.131 48.848 40.526 39.802 36.546-1.809-0.724-13.388-6.151-25.329-11.941-18.454-9.408-25.69-10.855-50.657-10.855-25.329 0-31.48 1.447-50.657 11.579-51.743 27.138-77.795 80.69-63.683 130.623 5.428 18.454-1.809 13.388-13.026-9.046zM188.517 704.905c-16.283-22.434-28.947-52.105-32.927-75.624-12.302-76.71 45.953-166.807 127.367-196.84 73.453-27.138 169.34-1.086 205.886 56.447 13.75 22.072 13.388 25.69-2.171 11.941-26.414-23.158-65.131-36.546-104.571-36.546-81.052 0-157.037 53.914-186.708 132.071-11.217 30.033-11.941 78.881-1.086 106.018 4.342 10.131 7.237 18.816 6.875 18.816-0.724 0-6.151-7.237-12.664-16.283zM1882.278 692.24c-57.17-15.197-100.591-48.848-120.13-91.907-25.69-57.17-42.335-135.689-38.717-180.557 4.342-51.381 28.223-80.328 74.539-90.821s205.162-17.368 231.938-9.77c7.599 2.171 9.77 6.513 16.645 36.546 4.704 18.816 8.684 37.993 9.408 42.697l1.086 8.684-66.94-0.362c-72.367-0.362-122.663 3.618-138.584 10.855-18.454 8.322-30.756 38.717-19.901 49.572 3.257 3.257 35.822 4.342 124.472 4.342h120.13l3.98 22.796c13.026 72.006 14.112 102.762 4.342 138.222-8.322 29.671-22.072 44.144-54.276 56.447-29.671 11.941-110.36 13.388-147.992 3.257zM1970.205 603.952c9.408-6.151 23.519-33.289 23.519-45.23v-8.684l-71.282 2.895c-39.44 1.447-72.367 3.257-73.091 3.98-0.724 0.362-0.362 5.066 1.086 10.131 3.98 15.559 23.158 34.375 41.611 40.164 20.625 6.513 65.854 4.704 78.157-3.257zM749.365 682.471c-8.322-31.842-18.454-73.091-18.454-74.9 0-1.086 24.243-2.171 53.552-2.171h53.552l8.322 40.526c4.704 22.434 9.046 42.697 10.131 45.23 1.447 3.618-9.046 4.704-51.019 4.704h-52.466l-3.618-13.388zM1382.943 593.82c-12.664-56.447-24.243-112.17-26.052-124.11-12.302-76.348 8.684-125.919 60.065-140.393 18.092-5.066 39.078-6.151 127.367-6.151 81.413 0 106.38 1.086 107.466 4.704 2.895 7.237 77.795 357.857 77.795 363.285 0 3.98-9.046 4.704-47.763 3.98l-47.401-1.086-31.842-132.071c-17.73-72.729-32.927-135.689-34.013-140.031-1.809-7.96-3.618-8.322-37.269-8.322-55.723 0-73.091 8.322-73.091 34.736 0 10.131 40.526 223.977 45.592 241.346 1.809 5.789-2.171 6.151-48.486 6.151h-50.295l-22.072-102.038zM2182.965 692.24c-4.704-2.171-9.408-8.684-11.579-17.006-4.704-16.645-34.013-151.972-57.532-267.036l-17.006-83.223 48.486-1.086c26.414-0.362 49.21-0.362 49.934 0.724 1.086 0.724 15.921 62.96 33.289 138.584l31.48 136.775 112.893 1.086c107.828 0.724 112.893 1.086 112.893 7.599 0 10.855-13.75 51.743-21.71 64.769-13.388 21.71-19.177 22.434-152.695 22.072-66.216 0-124.11-1.447-128.452-3.257zM55.361 650.991c-38.717-43.782-53.914-115.064-38.717-179.471 21.71-93.354 106.742-178.024 202.267-201.182 34.013-8.322 96.972-8.684 128.452-0.362 35.46 9.408 66.216 26.052 91.183 48.848 20.263 18.816 52.105 61.151 48.486 64.769-0.724 1.086-9.408-4.342-19.177-11.941-56.085-43.059-137.498-56.085-214.57-34.013-48.848 13.75-87.926 37.269-127.005 75.986-29.309 28.947-36.907 39.44-49.572 65.131-7.96 17.006-16.645 39.802-18.816 51.019-6.513 29.671-2.895 94.078 6.513 118.321 3.98 10.131 6.875 18.816 6.151 18.816s-7.599-7.237-15.197-15.921zM725.484 575.729c-3.98-10.855-38.355-157.037-47.039-200.096-16.283-81.413-34.013-106.742-74.177-107.466-18.092-0.362-18.092-0.724-22.072-15.197-2.171-8.322-7.599-29.309-12.664-47.401-4.704-17.73-8.684-34.013-8.684-35.822 0-1.447 24.967-2.171 55.361-1.447 65.854 1.809 87.565 8.322 109.275 32.565 19.539 21.348 28.585 44.144 46.677 116.873 23.519 94.078 56.447 244.24 56.447 257.266 0 6.875-100.591 7.237-103.124 0.724z" horiz-adv-x="2790" />
<glyph unicode="&#xe601;" d="M590.519 561.255l1.086-319.864 9.408-17.73c6.513-12.664 14.112-21.348 26.776-28.947 15.921-9.77 20.625-10.855 56.808-12.302l39.078-1.086v155.228c0 96.611 1.447 163.551 3.98 176.577 11.941 64.769 56.808 97.696 116.512 85.032 41.611-8.322 68.387-41.249 74.9-91.183 1.809-14.473 3.618-79.966 3.618-145.82 0.362-134.242 0.724-138.584 26.776-159.932 18.092-14.835 35.098-19.177 72.367-19.177h31.48l-1.447 183.813c-1.447 202.267-1.086 200.458-25.329 250.392-14.112 28.947-47.401 63.322-74.9 76.71-53.19 26.776-123.748 31.842-163.912 12.302-11.217-5.428-30.394-19.539-42.335-31.48l-21.71-22.072v83.946c0 89.012-1.809 100.229-19.177 118.683-16.645 18.092-34.375 23.881-75.986 25.329l-39.078 1.447 1.086-319.864zM1848.989 847.83c-39.078-6.513-79.604-14.835-97.696-20.263l-18.092-5.428v-257.628c0-206.971 1.086-261.247 5.066-276.444 15.559-57.894 51.743-90.459 116.873-104.209 35.46-7.599 159.208-7.237 193.945 0.362 104.933 23.158 173.32 107.104 168.254 206.247-1.447 24.605-3.618 34.013-13.75 54.637-14.835 30.033-48.486 65.131-74.9 77.433-10.493 4.704-18.816 9.77-19.177 10.855 0 1.447 7.599 5.066 17.368 8.684 25.329 9.77 58.98 44.868 69.111 72.367 15.921 42.697 13.75 93.716-6.151 135.689-12.664 27.5-47.401 61.151-76.71 75.262-45.23 21.348-58.618 23.519-155.59 24.605-48.848 0.362-97.696-0.724-108.551-2.171zM2031.717 727.7c21.71-11.217 30.033-19.901 36.546-37.993 10.131-29.309 3.98-57.532-18.092-79.242-22.796-22.796-40.526-26.776-120.492-26.776h-66.216l0.724 75.262 1.086 74.9 12.664 2.533c6.875 1.086 40.526 1.809 74.177 1.447 58.98-0.362 62.236-0.724 79.604-10.131zM2035.336 468.625c35.46-16.283 46.315-35.098 46.677-80.328 0-35.098-4.342-46.315-24.605-64.407-19.901-17.368-42.697-22.434-103.124-22.434-47.401 0-54.276 0.724-65.493 7.599-21.71 13.388-21.348 13.026-21.71 95.163v75.262l75.262-1.447c68.025-1.447 76.71-2.171 92.992-9.408zM2409.837 847.83c-39.078-6.513-79.604-14.835-97.696-20.263l-18.092-5.428v-257.628c0-206.971 1.086-261.247 5.066-276.444 15.559-57.894 51.743-90.459 116.873-104.209 35.46-7.599 159.208-7.237 193.945 0.362 104.933 23.158 173.32 107.104 168.254 206.247-1.447 24.605-3.618 34.013-13.75 54.637-14.835 30.033-48.486 65.131-74.9 77.433-10.493 4.704-18.816 9.77-19.177 10.855 0 1.447 7.599 5.066 17.368 8.684 25.329 9.77 58.98 44.868 69.111 72.367 15.921 42.697 13.75 93.716-6.151 135.689-12.664 27.5-47.401 61.151-76.71 75.262-45.23 21.348-58.618 23.519-155.59 24.605-48.848 0.362-97.696-0.724-108.551-2.171zM2592.565 727.7c21.71-11.217 30.033-19.901 36.546-37.993 10.131-29.309 3.98-57.532-18.092-79.242-22.796-22.796-40.526-26.776-120.492-26.776h-66.216l0.724 75.262 1.086 74.9 12.664 2.533c6.875 1.086 40.526 1.809 74.177 1.447 58.98-0.362 62.236-0.724 79.604-10.131zM2596.184 468.625c35.46-16.283 46.315-35.098 46.677-80.328 0-35.098-4.342-46.315-24.605-64.407-19.901-17.368-42.697-22.434-103.124-22.434-47.401 0-54.276 0.724-65.493 7.599-21.71 13.388-21.348 13.026-21.71 95.163v75.262l75.262-1.447c68.025-1.447 76.71-2.171 92.992-9.408zM204.438 711.418c-93.354-19.901-154.505-79.966-179.11-175.853-12.664-50.657-15.197-96.972-13.75-279.339l1.086-173.682 9.408-18.092c10.493-20.263 32.927-39.44 53.19-45.23 7.237-1.809 26.052-3.618 41.611-3.618h27.861v227.234l26.414-26.414c36.184-36.184 54.999-43.42 111.084-43.42 64.407 0.362 107.466 17.73 150.886 61.512 47.763 48.486 72.367 114.702 75.986 204.438 1.809 41.973 0.724 53.552-5.789 81.413-23.519 97.334-90.098 168.616-179.471 191.774-27.138 6.875-85.394 6.513-119.406-0.724zM285.49 597.801c37.269-7.96 65.854-36.184 78.519-77.433 9.77-32.204 14.112-92.269 9.408-123.748-14.112-91.545-82.499-132.794-158.485-95.163-46.677 22.796-70.196 72.729-70.196 148.353 0 109.999 53.914 166.807 140.755 147.992zM1347.844 711.418c-93.354-19.901-154.505-79.966-179.11-175.853-12.664-50.657-15.197-96.972-13.75-279.339l1.086-173.682 9.408-18.092c10.493-20.263 32.927-39.44 53.19-45.23 7.237-1.809 26.052-3.618 41.611-3.618h27.861v227.234l26.414-26.414c36.184-36.184 54.999-43.42 111.084-43.42 64.407 0.362 107.466 17.73 150.886 61.512 47.763 48.486 72.367 114.702 75.986 204.438 1.809 41.973 0.724 53.552-5.789 81.413-23.519 97.334-90.098 168.616-179.471 191.774-27.138 6.875-85.394 6.513-119.406-0.724zM1428.896 597.801c37.269-7.96 65.854-36.184 78.519-77.433 9.77-32.204 14.112-92.269 9.408-123.748-14.112-91.545-82.499-132.794-158.485-95.163-46.677 22.796-70.196 72.729-70.196 148.353 0 109.999 53.914 166.807 140.755 147.992z" horiz-adv-x="2790" />
<glyph unicode="&#xe602;" d="M976.811 298.893c-10.964 4.882-27.12 7.051-57.253 10.907-20.913 2.711-60.874 7.775-79.737 14.165 2.834 17.414 5.664 36.703-4.404 53.698v52.98c13.262-5.908 24.594-8.807 34.598-8.807 16.033 0 29.89 7.235 38.090 19.833 13.137 20.305 9.762 48.213-11.695 96.369-17.356 39.116-37.307 81.063-60.992 121.681v75.82c0 28.686-23.326 52.071-52.012 52.071h-575.141c-28.69 0-52.071-23.385-52.071-52.071v-575.141c0-28.688 23.383-52.012 52.071-52.012h575.141c20.436 0 37.912 11.933 46.465 29.049 45.207 4.217 86.971 10.544 121.864 16.39 52.194 8.742 101.189 22.423 106.194 62.26 4.941 39.174-38.265 63.887-81.12 82.807zM946.38 185.83c-69.912-11.693-140.248-20.674-213.115-20.674-33.806 0-68.161 1.931-103.235 6.45-179.119 22.903-295.803 71.055-428.51 174.181v336.658l0.365 11.629c0 51.47 17.896 51.47 69.064 51.47 3.372 0 6.269 0 8.918 0 16.213 0 21.698 0 21.698 0h406.032c26.822 0 29.708-4.759 29.708-4.759 56.296-61.172 95.95-140.606 129.463-215.937 19.162-43.157 23.566-70.519 3.253-70.519-10.244 0-26.88 6.993-50.982 22.484-14.947 9.583-69.187 87.205-93.422 87.205-2.227 0-4.217-0.661-5.908-2.169-13.014-11.331-21.695-21.877-31.097-21.877-6.69 0-13.683 5.241-22.844 19.162-19.948 20.071-118.064 62.202-148.563 62.202-2.649 0-4.755-0.304-6.265-0.968-10.851-4.578-19.645-7.11-27.479-8.194 1.080-1.272 2.048-2.596 3.128-3.796 52.617-58.703 96.974-30.678 112.586-115.718 4.82-26.217 133.854-112.334 171.766-119.87 0.121 0 0.363 0 0.478 0 50.023 0 38.93-21.702 33.992-58.461-4.34-32.542 135.843-35.201 158.27-45.086 98.227-43.456 70.62-68.588-17.301-83.412z" horiz-adv-x="1215" />
<glyph unicode="&#xe603;" d="M1015.177 347.473c-8.68 4.997-19.482 4.249-27.346-1.996-38.156-30.347-74.369-51.825-108.338-64.691v540.352c0 26.6-21.601 48.33-48.328 48.33h-595.797c-26.725 0-48.33-21.728-48.33-48.33v-595.924c0-26.598 21.605-48.328 48.33-48.328h186.818c24.852-56.568 65.873-103.525 136.805-129.125 124.509-44.953 224.411-10.113 286.287 26.977 105.025 63.063 171.085 172.58 181.949 248.131 1.435 9.867-3.374 19.607-12.050 24.604zM820.111 116.698c-52.758-31.716-138.049-61.444-244.512-22.98-27.844 10.121-49.888 24.354-67.62 41.837-58.195 59.321-67.683 154.977-77.55 254.752-9.928 101.154-19.357 196.685-82.547 252.755-39.589 35.215-79.048 59.067-117.51 70.932v55.57c6.616-0.498 13.175-1.248 19.73-2.246 106.27-16.362 171.085-64.064 238.957-175.705 9.305-15.36 18.98-32.47 29.533-52.2 7.245-13.61 14.55-27.846 21.976-42.71 13.239-26.725 27.537-56.816 44.832-94.528 55.822-122.009 131.435-183.828 224.661-183.828 22.351 0 45.582 3.751 69.43 11.24v-0.373c25.038 7.74 50.825 19.605 77.298 35.342-26.348-52.575-73.799-110.144-136.678-147.857zM737.881 205.737c-39.837 15.608-87.608 48.578-111.517 98.278-8.744-46.582 29.595-104.398-44.272-78.55-75.675 26.475-64.187-7.491-66.373-46.582 12.923-22.601 31.845-39.708 59.382-54.318 79.735-41.964 150.292-30.72 195.435-11.49 59.632 25.348 106.708 66.435 131.681 108.645-19.047-8.492-37.463-14.86-55.070-18.984-40.46-10.613-77.048-9.736-109.266 3.001z" horiz-adv-x="1215" />
<glyph unicode="&#xe604;" d="M925.188 466.172v306.964c0 27.866-22.611 50.42-50.416 50.42h-557.614c-27.811 0-50.42-22.554-50.42-50.42v-557.552c0-27.811 22.611-50.422 50.42-50.422h89.040c9.115-8.125 18.698-15.834 28.628-23.078 62.865-45.574 136.656-69.644 213.603-69.644v0c19.279 0 38.795 1.52 57.957 4.558 64.153 10.167 121.642 41.137 164.995 88.163h3.392c27.809 0 50.416 22.615 50.416 50.422v32.716c20.742 48.787 27.517 102.596 18.988 156.229-3.447 21.677-9.932 42.357-18.99 61.642zM341.345 296.325l22.903-1.224-12.736-19.458c-3.622 6.783-7.011 13.675-10.167 20.682zM450.776 163.001c-0.177 0.123-0.351 0.236-0.526 0.294-8.005 5.9-15.658 12.034-23.080 18.462l29.037 10.224-5.432-28.98zM563.127 109.834l19.162 22.205 9.936-28.569c-9.817 1.693-19.516 3.852-29.099 6.364zM714.917 105.22l11.218 31.492 19.514-23.024c-10.048-3.386-20.216-6.245-30.732-8.468zM865.887 199.17l-20.623-21.679-9.702 33.066 32.951-7.942c-0.873-1.169-1.693-2.336-2.625-3.445zM875.236 211.728l-54.863 13.322 16.767-57.086c-23.663-21.732-51.063-38.791-80.979-50.418l-33.885 39.791-19.281-54.28c-0.234-0.058-0.464-0.058-0.703-0.121-17.876-2.86-35.993-4.263-53.871-4.263v0c-15.011 0-29.797 1.228-44.52 3.155l-17.761 50.829-34.179-39.666c-32.308 9.698-63.157 24.36-91.668 43.699l9.583 51.24-51.647-18.166c-23.955 22.314-44.403 47.787-60.821 75.655l25.533 39.148-46.388 2.57c-10.109 24.427-17.47 50.307-21.734 77.062-24.074 151.443 31.782 302.062 149.45 403.72l27.928 21.034h238.783l-72.384-21.034c-165.634-48.023-273.896-213.544-246.203-388.235 10.048-63.214 44.169-118.713 95.935-156.345 41.305-29.974 89.8-45.802 140.338-45.802 12.677 0 25.473 0.992 38.092 3.030 73.266 11.574 135.956 82.563 136.833 154.945 0.462 32.198-11.218 61.232-33.713 84.016-28.92 29.273-74.843 46.8-122.749 46.8-21.268 0-41.716-3.33-60.995-9.992-4.439-1.516-8.821-2.338-12.735-2.338-10.984 0-13.733 5.787-15.017 11.395-3.33 15.074 15.717 34.121 22.030 40.375 1.754 1.75 3.39 3.445 4.793 5.021 22.899 20.159 50.825 33.361 80.975 38.152 53.286 8.414 107.272-4.499 150.971-36.223 43.818-31.782 72.625-78.759 81.092-132.275 10.627-66.665-4.739-133.447-43.006-188.716zM675.89 558.656c-16.475 0-29.797-13.379-29.797-29.797 0-16.473 13.322-29.853 29.797-29.853 16.477 0 29.799 13.379 29.799 29.853-0.002 16.422-13.324 29.797-29.799 29.797zM675.89 509.521c-10.633 0-19.283 8.646-19.283 19.337 0 10.635 8.646 19.281 19.283 19.281 10.633 0 19.283-8.646 19.283-19.281-0.002-10.688-8.65-19.337-19.283-19.337z" horiz-adv-x="1215" />
<glyph unicode="&#xe605;" d="M800 544v128c0 159.072-128.928 288-288 288s-288-128.928-288-288v-128c-53.024 0-96-42.976-96-96v-224c0-159.072 128.928-288 288-288h192c159.072 0 288 128.928 288 288v224c0 53.056-43.008 96-96 96zM288 672c0 123.712 100.288 224 224 224s224-100.288 224-224v-128h-64v127.936c0 88.384-71.616 160-160 160s-160-71.616-160-160v-127.936h-64v128zM640 672v-128h-256v128c0 70.688 57.312 128 128 128s128-57.312 128-128zM832 352v-128c0-123.488-100.512-224-224-224h-192c-123.488 0-224 100.512-224 224v224c0 17.664 14.336 32 32 32 21.344 0 42.656 0 64 0h448c21.312 0 42.624 0 64 0 17.632 0 32-14.336 32-32v-96zM512 352c-35.328 0-64-28.64-64-64 0-19.424 10.656-56.32 21.344-85.504 8.704-23.744 19.648-42.432 42.656-42.432 25.024 0 33.952 18.496 42.688 42.112 10.816 29.248 21.312 66.336 21.312 85.824 0 35.36-28.672 64-64 64z" />
<glyph unicode="&#xe606;" d="M512 736c-190.816 0-352-102.592-352-224 0-8.832 7.168-16 16-16s16 7.168 16 16c0 102.272 149.536 192 320 192 8.8 0 16 7.168 16 16s-7.168 16-16 16zM512 896c-282.784 0-512-171.936-512-384 0-132.064 88.928-248.512 224.256-317.632 0-0.864-0.256-1.44-0.256-2.368 0-57.376-42.848-119.136-61.696-151.552 0.032 0 0.064 0 0.064 0-1.504-3.52-2.368-7.392-2.368-11.456 0-16 12.96-28.992 28.992-28.992 3.008 0 8.288 0.8 8.16 0.448 100 16.384 194.208 108.256 216.096 134.88 31.968-4.704 64.928-7.328 98.752-7.328 282.72 0 512 171.936 512 384s-229.248 384-512 384zM512 192c-29.344 0-59.456 2.24-89.472 6.624-3.104 0.512-6.208 0.672-9.28 0.672-19.008 0-37.216-8.448-49.472-23.36-13.696-16.672-52.672-53.888-98.72-81.248 12.48 28.64 22.24 60.736 22.912 93.824 0.192 2.048 0.288 4.128 0.288 5.888 0 24.064-13.472 46.048-34.88 56.992-118.592 60.544-189.376 157.984-189.376 260.608 0 176.448 200.96 320 448 320 246.976 0 448-143.552 448-320s-200.992-320-448-320z" />
<glyph unicode="&#xe607;" d="M995.86 483.034c-22.953 23.917-49.491 43.355-77.431 60.747-2.556 1.659-3.455 3.324-4.092 6.263-4.288 19.311-2.556 38.878-2.622 58.316-0.258 40.029 0.127 80.059-0.258 119.957-0.385 29.543-22.893 52.051-52.432 53.583-1.79 0.129-3.582 0.129-5.37 0.129-99.624 0-199.18 0-298.742-0.129-10.482 0-20.206 3.072-30.18 5.247-35.743 7.672-70.208 19.438-104.865 30.692-9.018 2.941-18.289 4.989-27.368 7.418-2.302 0-4.67 0-6.97 0 0.576-1.282 0.832-2.812 1.727-3.965 9.464-11.893 19.055-23.786 28.646-35.679 0.77-1.024 1.534-2.044 2.687-3.58-2.177 0-3.584 0-5.116 0-52.305 0-104.738 0-157.172 0-28.39 0-50.706-18.543-55.373-45.782-0.637-3.582-0.768-7.16-0.768-10.871 0-45.399-0.065-90.799 0.065-136.327 0-3.324-0.897-5.114-3.836-6.519-4.225-2.044-8.25-4.477-12.215-7.158 5.116 0.25 10.294 0.633 15.985 1.024 0-1.534 0-2.818 0-3.967 0-17.138-0.065-34.274 0-51.279 0.065-2.558-0.766-4.223-2.88-5.626-7.353-5.116-14.578-10.105-21.675-15.346-5.499-4.092-10.677-8.313-15.985-12.534 0-0.512 0-1.026 0-1.536 12.084-2.427 24.169-4.985 36.257-7.287 3.388-0.637 4.348-2.171 4.348-5.626-0.065-64.329-0.065-128.524-0.065-192.853 0-51.279-0.065-102.694 0-154.094 0-27.497 18.031-49.493 44.633-54.484 3.58-0.762 7.416-1.024 11.123-1.024 199.886 0 399.769 0 599.78 0 31.46 0 55.248 22.77 55.758 54.097 0.512 31.329 0.125 62.535 0.125 93.738 0 37.217 0 74.434 0 111.775 0 1.532 0 2.937 0 4.729 12.852-2.558 23.528-8.059 31.651-17.779 13.362-15.725 26.537-31.585 39.773-47.572 6.716-8.186 13.3-16.497 20.077-24.806 1.983-2.304 4.285-4.223 6.652-6.521 0.703 0.893 1.149 1.145 1.345 1.659 10.869 23.407 22.187 46.298 32.48 70.079 4.541 10.49 7.803 22.258 10.105 33.633 2.943 14.449 0.062 29.158-3.259 43.357-8.762 37.336-28.329 68.668-54.546 95.903zM1026.554 326.378c-3.705-19.055-7.287-37.981-15.795-56.014-1.276 2.812-2.495 5.626-3.9 8.311-9.718 19.178-22.254 36.322-35.298 53.325-12.020 15.6-27.491 26.344-44.246 35.81-33.314 18.803-68.735 32.861-104.547 46.036-0.641 0.254-1.411 0.385-2.239 0.125 22.568-12.28 45.141-24.558 67.778-36.834-0.198-0.379-0.385-0.891-0.574-1.276-12.725 3.449-25.644 6.519-38.241 10.48-19.758 5.888-13.751 3.070-59.084 16.755-82.164 22.381-95.272 7.547-95.272 7.547 79.094-8.311 94.698-24.683 135.491-45.786-2.044-5.364-3.965-10.613-5.884-15.856-2.939-7.924-5.819-15.856-8.952-23.778-1.919-4.993-1.663-9.597 0.194-14.586 16.305-42.585 33.312-85.167 49.489-127.756 0.895-2.302 1.409-4.985 1.598-7.418v-73.274c-0.123-1.409-0.123-3.070-0.762-4.481 0-0.125-0.198-0.254-0.262-0.385-7.162-8.434-16.108-10.355-27.17-10.355-132.62 0.385-265.23 0.123-397.786 0.123-63.367 0-126.734 0-190.037 0.129-3.197 0-6.523 0.131-9.591 0.643-14.836 2.429-23.594 12.915-24.554 29.668-0.32 7.16 0 14.324 0 21.611 0 0.897 0.381 1.921 0.83 2.814 16.307 31.716 28.968 64.964 41.5 98.217 0.957 2.554 1.919 4.983 2.687 7.67-11.254-20.972-27.239-37.852-44.248-53.841-0.51 0.127-0.96 0.26-1.405 0.383 0.703 10.486 0.832 21.101 2.3 31.589 5.753 41.305 11.895 82.611 17.902 123.92 0 0.254-0.127 0.51-0.381 1.532-6.267-20.716-12.405-40.799-18.48-60.747-0.192 0-0.448 0-0.703 0 0 2.046 0 3.969 0 5.89 0 38.491-0.064 76.858 0 115.345 0 2.308 0.512 4.866 1.532 6.912 8.696 19.174 17.65 38.235 26.471 57.29 2.433 5.114 0.639 9.968-4.858 11.254-8.954 1.917-17.904 3.449-26.856 4.854-5.755 1.026-11.51 1.536-18.287 2.308 2.175 1.405 3.582 2.296 4.989 3.32 44.887 29.801 84.915 64.966 120.211 105.766 1.788 2.044 5.178 4.092 3.326 7.547-1.727 3.193-5.499 2.683-8.377 2.046-11.383-2.433-22.701-5.116-34.020-8.061-5.436-1.28-10.679-3.195-16.307-4.346 39.325 33.375 78.65 66.756 118.421 100.515-34.145 23.659-67.973 47.062-101.797 70.465 0.127 0.383 0.256 0.639 0.383 1.024 65.669-11.637 131.34-23.147 197.965-34.784-20.462 22.123-40.22 43.48-60.616 65.476 1.661-0.383 2.558-0.512 3.324-0.766 67.457-22.51 134.789-45.145 202.313-67.266 64.581-21.101 125.837-49.235 181.724-88.241 22.572-15.731 43.036-33.891 58.953-56.522 7.863-11.254 14.068-23.278 16.882-36.961 0.191-1.024-0.383-3.068-1.209-3.582-5.501-3.068-9.276-7.672-12.215-13.044-5.247-9.845-7.872-20.337-7.422-31.46 0.262-6.138-2.042-9.337-8.311-9.337-5.116 0-10.296 0.51-15.217 1.796-6.521 1.659-12.917 4.092-19.379 6.261-1.088 0.256-2.044 0.637-3.13 1.026 14.193-9.21 28.646-17.394 45.782-18.928 7.412-0.637 14.961-0.125 20.972 5.372 1.983 1.788 2.747 3.582 1.661 6.394-3.072 8.186-0.899 15.346 5.241 21.486 2.179 2.171 3.967 2.558 6.908 0.899 28.898-17.394 55.627-37.342 79.291-61.386 13.812-13.941 26.025-29.033 36.257-45.915 16.442-26.973 21.044-55.997 15.033-86.947zM644.243 536.108c-10.484 1.661-20.972 3.58-31.395 5.749-2.558 0.514-3.773 0.131-5.245-2.044-3.709-5.243-9.21-6.904-15.346-5.751-5.626 1.022-10.486 4.346-10.998 9.974-0.448 5.626-3.709 6.269-7.67 7.293-1.282 0.25-2.562 0.51-3.709 1.022-1.919 0.893-3.197 0.252-4.602-1.282-9.079-10.613-12.661-22.758-9.593-36.57 4.475-20.335 23.915-34.661 46.548-34.661 0.129-0.254 0.194-0.635 0.256-1.024 6.587 1.659 13.431 2.558 19.567 5.116 19.821 7.93 30.633 27.237 27.112 47.062-0.516 3.072-1.534 4.479-4.926 5.116z" horiz-adv-x="1215" />
<glyph unicode="&#xe608;" d="M1005.248 650.336l-162.56 162.592c-12 12-28.32 18.752-45.248 18.752h-570.848c-16.96 0-33.248-6.752-45.248-18.752l-162.56-162.592c-12.576-12.544-18.848-29.088-18.784-45.664 0.096-15.040 5.472-30.048 16.192-42.112l447.968-477.056c12.16-13.696 29.568-21.504 47.84-21.504 18.24 0 35.68 7.808 47.808 21.504l448 477.056c10.944 12.32 16.32 27.744 16.192 43.136-0.128 16.192-6.432 32.32-18.752 44.64zM775.008 767.68l-61.312-51.104-51.072 51.104h112.384zM777.376 607.68h-144.448l78.816 65.632 65.632-65.632zM689.024 696l-81.024-67.488-70.976 59.168 87.392 72.896 64.608-64.576zM583.008 607.68h-142.048l71.040 59.168 71.008-59.168zM582.976 767.68l-70.976-59.2-71.040 59.2h142.016zM487.008 687.68l-71.008-59.168-81.024 67.488 64.576 64.576 87.456-72.896zM391.040 607.68h-144.416l65.632 65.632 78.784-65.632zM361.376 767.68l-51.104-51.104-61.312 51.104h112.416zM213.952 755.2l73.632-61.344-86.208-86.176h-137.184l149.76 147.52zM91.648 575.68h113.728l201.152-335.328-314.88 335.328zM242.656 575.68h157.024l78.496-392.64-235.52 392.64zM432.32 575.68h159.36l-79.68-398.496-79.68 398.496zM545.824 183.072l78.496 392.64h156.992l-235.488-392.64zM617.44 240.32l201.184 335.36h113.76l-314.944-335.36zM822.624 607.68l-86.176 86.176 73.504 61.28 147.424-147.456h-134.752z" />
<glyph unicode="&#xe609;" d="M444.928 960.64c-32.288 0-58.464-26.176-58.464-58.464v-167.456h66.432v159.456h456.288v-606.816h-221.504v-66.464h229.44c32.288 0 58.464 26.176 58.464 58.464v622.816c0 32.288-26.176 58.464-58.464 58.464h-472.192zM824.128 429.12h-136.448v-66.432h136.448c18.496 0 33.408 14.752 33.408 33.248 0 18.432-14.912 33.184-33.408 33.184zM687.68 491.168h142.080c18.464 0 33.408 14.752 33.408 33.216s-14.944 33.216-33.408 33.216h-176.256l34.144-34.592v-31.84zM829.792 686.048h-295.168c-3.296 0-6.4-0.32-9.344-1.184l66.336-65.28h238.144c18.464 0 33.408 14.784 33.408 33.216 0.032 18.464-14.912 33.248-33.376 33.248zM829.792 814.496h-295.168c-18.528 0-33.44-14.784-33.44-33.216 0-18.464 14.912-33.248 33.44-33.248h295.168c18.464 0 33.408 14.784 33.408 33.248 0 18.432-14.944 33.216-33.408 33.216zM108.32 681.6c-32.288 0-58.464-26.176-58.464-58.464v-627.2c0-32.288 26.176-58.464 58.464-58.464h472.192c32.288 0 58.464 26.176 58.464 58.464v448.8c0 28.544-11.264 55.936-31.328 76.192l-127.328 128.576c-20.352 20.544-48.032 32.096-76.992 32.096h-295.008zM116.32 3.936v606.784h283.456v-126.080c0-11.456 4.576-22.432 12.672-30.528 8.128-8.064 19.136-12.576 30.592-12.512l129.472 0.768v-438.496h-456.192zM524.928 508.832l-58.688-0.896v57.696l58.816-56.8h-0.128zM197.184 468.992h92.64c18.432 0 33.408 14.752 33.408 33.216s-14.976 33.216-33.408 33.216h-92.64c-18.464 0-33.376-14.752-33.376-33.216 0-18.432 14.912-33.216 33.376-33.216zM492.384 406.976h-295.2c-18.464 0-33.376-14.752-33.376-33.216s14.912-33.216 33.376-33.216h295.2c18.464 0 33.408 14.752 33.408 33.216 0 18.432-14.944 33.216-33.408 33.216zM492.384 282.976h-295.2c-18.464 0-33.376-16.992-33.376-35.424s14.912-35.456 33.376-35.456h295.2c18.464 0 33.408 17.024 33.408 35.456s-14.944 35.424-33.408 35.424zM492.384 154.496h-295.2c-18.464 0-33.376-14.784-33.376-33.216s14.912-33.216 33.376-33.216h295.2c18.464 0 33.408 14.784 33.408 33.216s-14.944 33.216-33.408 33.216zM85.824 733.728c1.248-4.768 5.504-7.84 10.528-7.84h0.032c0 0 0.8 2.784 2.816 7.84 6.4 16.352 24.096 52.384 65.44 65.792 54.016 17.536 75.712 5.568 75.712 5.568v-36.736c0-3.904 3.040-7.424 6.624-8.96 3.584-1.568 8.16-0.832 11.008 1.792l79.808 73.952c4.864 4.544 7.712 10.944 7.584 17.632-0.224 6.688-3.168 12.96-8.192 17.312l-80.16 68.224c-2.912 2.464-7.008 3.040-10.4 1.408-3.488-1.568-5.696-5.056-5.696-8.896l0.032-28.736c0 0-84.256-14.752-127.84-70.912-32.544-41.92-30.592-80.352-27.52-97.184 0.096-0.224 0.192-0.032 0.224-0.256zM942.528 167.808h-0.064c0 0-14.272-57.344-68.256-74.88-54.112-17.536-75.808-6.464-75.808-6.464v36.736c0 3.904-3.040 7.424-6.624 8.96-3.52 1.568-8.064 0.832-10.912-1.792l-79.776-73.92c-4.864-4.544-7.712-10.976-7.552-17.664 0.128-6.656 3.104-12.96 8.192-17.28l80.032-68.224c2.944-2.464 7.040-3.040 10.528-1.44 3.392 1.6 5.696 5.088 5.664 8.896l-0.064 28.736c0 0 84.224 14.72 127.808 70.848 32.544 41.952 30.56 81.056 27.488 97.856-0.928 5.184-5.44 9.632-10.656 9.632z" />
<glyph unicode="&#xe60a;" d="M218.264 516.483c-74.762-80.462-96.411-137.762-96.411-137.762 16.237-18.843 43.913-17.256 43.913-17.256 29.171-0.91 47.035 17.178 47.035 17.178 36.249 36.511 31.785 140.209 31.785 140.209-7.325 15.951-26.322-2.368-26.322-2.368zM102.932 453.561c0 0-11.436-22.872 7.442-61.358l50.171 110.279c-0.573-0.206-45.251-15.794-57.613-48.921zM793.614 386.398c-3.082-0.264-6.128-0.264-9.139 0.546-5.023 1.302-8.054 4.446-8.964 9.577-0.493 2.862-0.339 5.673 0.182 8.481 1.431 7.964 2.927 15.927 4.427 23.89 2.669 14.467 5.374 28.961 8.068 43.43 0.093 0.65 0.273 1.302 0.417 1.977 13.32 0 26.513 0 39.684 0 1.615 3.304 8.106 19.491 8.172 20.453-2.485 0-4.983 0-7.471 0-2.525 0-5.023 0-7.508 0-2.512 0-5.010 0-7.535 0-2.463 0-4.983 0-7.508 0-2.463 0-4.983 0-7.48 0-2.483 0-4.957-0.051-7.624 0.027 2.625 13.375 5.201 26.593 7.777 39.788-0.066 0-0.157 0-0.22 0-0.206-0.155-0.391-0.339-0.612-0.417-2.876-1.456-5.747-2.862-8.64-4.293-6.18-3.044-12.344-6.115-18.541-9.135-0.703-0.364-1.016-0.806-1.069-1.535-0.091-0.781-0.22-1.536-0.342-2.316-1.014-6.375-2.012-12.75-3.031-19.127-0.948-5.933-1.901-11.866-2.824-17.773-1.003-6.348-2.013-12.699-2.993-19.022-0.95-5.907-1.86-11.813-2.785-17.695-1.039-6.452-2.055-12.881-3.057-19.308-0.963-5.906-1.873-11.813-2.813-17.698-0.35-2.103-0.805-4.189-0.925-6.297-0.249-4.032 0.115-7.99 1.069-11.888 2.225-9.082 7.699-15.33 16.506-18.581 4.307-1.617 8.796-2.292 13.364-2.448 4.194-0.157 8.356 0.107 12.49 0.726 2.163 0.286 4.345 0.726 6.561 1.12 1.549 6.61 3.080 13.162 4.668 19.85-0.493-0.104-0.768-0.157-1.039-0.235-3.694-0.983-7.455-1.788-11.267-2.099zM1012.695 489.497c-0.91 0.078-1.471-0.26-1.979-1.039-3.655-5.594-7.376-11.163-11.057-16.706-0.191-0.262-0.391-0.493-0.677-0.885-0.144 0.47-0.269 0.781-0.364 1.094-0.948 3.122-1.882 6.219-2.845 9.315-0.726 2.394-1.473 4.762-2.212 7.182-0.109 0.39-0.233 0.781-0.754 0.781-1.041-0.027-2.073-0.027-3.202-0.027-1.82-7.832-3.615-15.663-5.425-23.575 1.252 0 2.343 0 3.552 0 1.276 5.023 2.547 10.045 3.814 15.066 0.091 0.027 0.186 0.027 0.271 0.027 1.511-5.179 3.002-10.357 4.542-15.588 0.816 0 1.6 0.025 2.388-0.027 0.721-0.027 1.183 0.208 1.615 0.859 3.031 4.555 6.128 9.080 9.224 13.635 0.182 0.286 0.417 0.572 0.612 0.859 0.091-0.027 0.184-0.027 0.235-0.078-0.404-4.892-0.796-9.81-1.18-14.78 1.314 0 2.459 0 3.67 0 0.013 0.235 0.051 0.364 0.091 0.493 0.468 6.688 0.91 13.349 1.365 20.012 0.038 0.311 0.157 0.624 0.235 0.961 0 0.806 0 1.638 0 2.472-0.617-0.051-1.269-0.129-1.919-0.051zM707.818 499.256c-5.906 0.468-11.791 0.362-17.642-0.366-8.092-1.039-15.847-3.251-23.289-6.557-9.486-4.242-17.955-10.020-25.841-16.732-6.623-5.673-12.399-12.075-16.914-19.542-8.274-13.69-12.452-28.413-11.354-44.495 0.417-6.14 1.713-12.099 4.069-17.797 5.516-13.222 14.844-22.457 28.55-27.039 1.87-0.626 3.799-1.198 5.733-1.433 4.806-0.548 9.603-0.47 14.403 0.131 7.338 0.936 14.261 3.173 20.666 6.894 9.69 5.647 16.899 13.635 21.765 23.704 0.173 0.366 0.35 0.675 0.506 1.019 0.078-0.027 0.157-0.053 0.235-0.078-2.083-9.499-4.163-19-6.268-28.55 8.068 0 16.031 0 24.059 0 7.207 39.815 14.402 79.579 21.598 119.443-1.404 0.65-2.692 1.251-4.007 1.795-11.613 5.023-23.595 8.562-36.269 9.603zM719.516 467.978c-1.211-12.517-4.307-24.643-7.755-36.717-3.473-12.124-9.849-22.484-18.545-31.459-5.044-5.23-10.852-9.444-17.735-12.022-3.912-1.48-7.944-2.263-12.139-2.237-2.314 0.029-4.631-0.078-6.867 0.628-9.657 2.938-15.891 9.313-18.843 18.863-1.192 3.954-1.522 8.070-1.251 12.177 0.548 8.248 3.073 15.925 6.488 23.393 1.289 2.813 2.736 5.622 4.273 8.354 1.886 3.28 4.36 6.142 7.021 8.796 9.85 9.836 21.598 16.211 35.247 18.971 9.81 1.924 19.517 1.404 29.002-1.952 0.455-0.184 0.897-0.34 1.526-0.572-0.137-2.114-0.226-4.167-0.422-6.224zM939.364 486.14c-9.927 8.458-21.58 12.647-34.53 13.428-9.239 0.546-18.334-0.65-27.090-3.721-22.47-7.857-39.032-22.484-49.507-43.822-4.822-9.758-7.207-20.138-7.298-30.627 0.025-4.995 0.417-9.55 1.495-14.027 4.125-17.174 13.988-29.821 29.965-37.472 9.954-4.76 20.54-6.244 31.514-5.412 7.143 0.521 14.077 2.134 20.766 4.68 11.891 4.476 22.184 11.401 31.006 20.533 8.795 9.059 15.326 19.517 19.217 31.536 3.748 11.529 4.748 23.291 2.095 35.209-2.629 11.818-8.43 21.785-17.631 29.695zM924.181 413.486c-6.333-10.304-14.911-18.188-25.918-23.289-6.22-2.862-12.778-4.351-19.63-4.163-14.17 0.39-25.71 8.822-29.995 22.848-1.627 5.308-2.013 10.746-1.444 16.264 1.444 13.459 7.285 24.773 16.601 34.43 5.998 6.246 13.038 10.981 21.208 13.976 5.811 2.134 11.824 3.175 18.015 2.525 13.167-1.405 22.262-8.276 27.128-20.611 1.769-4.502 2.403-9.211 2.434-14.183-0.166-9.943-3.106-19.26-8.4-27.796zM372.082 467.275c-0.235 2.654-0.482 5.283-1.251 7.833-2.889 9.628-8.86 16.499-18.215 20.349-4.398 1.822-8.989 2.707-13.713 2.995-5.947 0.362-11.84-0.209-17.682-1.433-9.954-2.081-19.257-5.827-28.013-10.928-9.732-5.649-18.334-12.725-25.372-21.547-5.152-6.453-9.135-13.531-11.502-21.469-1.016-3.382-1.575-6.818-2.055-10.304-0.493-3.615-1.094-7.209-1.314-10.879-0.417-6.947 0.038-13.792 1.913-20.509 3.539-12.778 11.137-22.3 23.081-28.179 6.623-3.253 13.688-4.841 20.986-5.465 6.519-0.552 12.985-0.209 19.426 0.675 7.48 1.067 14.78 2.858 21.962 5.226 2.083 0.708 4.136 1.433 6.246 2.163 0.938 8.041 1.873 15.978 2.836 24.097-0.428-0.235-0.675-0.364-0.923-0.521-9.641-6.561-20.232-10.648-31.865-11.84-5.152-0.521-10.278-0.313-15.326 0.958-5.634 1.462-10.566 4.085-14.533 8.381-3.943 4.269-6.233 9.419-7.508 15.042-0.027 0.127 0.051 0.262 0.078 0.441 0.481 0.029 0.91 0.078 1.378 0.078 4.828 0.235 9.679 0.417 14.52 0.705 8.405 0.441 16.732 1.302 25.020 2.703 6.481 1.12 12.867 2.578 19.087 4.713 6.115 2.104 11.891 4.786 17.121 8.636 7.884 5.829 12.972 13.48 14.937 23.162 0.99 4.948 1.118 9.943 0.679 14.915zM346.798 454.082c-1.183-4.633-3.837-8.276-7.455-11.294-3.461-2.94-7.429-4.97-11.645-6.557-5.321-2.061-10.839-3.284-16.46-4.060-6.504-0.91-13.011-1.249-19.542-1.041-3.592 0.131-7.156 0.417-10.721 0.65-0.26 0-0.521 0.107-0.938 0.186 0.157 0.597 0.273 1.116 0.417 1.586 2.629 8.718 7.103 16.422 13.246 23.107 7 7.677 15.301 13.533 25.111 17.070 4.345 1.56 8.822 2.549 13.466 2.394 2.303-0.051 4.527-0.442 6.65-1.327 3.903-1.56 6.426-4.398 7.546-8.43 1.12-4.061 1.382-8.17 0.326-12.283zM483.69 495.015c-4.932 2.055-10.098 3.148-15.432 3.435-6.324 0.362-12.596-0.157-18.787-1.56-11.125-2.499-20.376-8.068-27.532-16.994-2.783-3.486-5.125-7.26-7.131-11.216-0.129-0.26-0.286-0.519-0.428-0.781-0.066 0.051-0.117 0.078-0.169 0.106 1.404 8.718 2.809 17.409 4.242 26.229-8.536 0-16.916 0-25.373 0-7.207-41.974-14.403-83.893-21.625-125.898 8.341 0 16.499 0 24.656 0 0.091 0.342 0.195 0.63 0.235 0.91 1.509 8.827 2.953 17.7 4.515 26.497 1.56 8.665 3.486 17.254 6.049 25.681 2.98 9.834 6.779 19.362 12.217 28.157 6.206 10.045 14.545 17.826 25.139 23.107 6.271 3.124 12.907 4.841 19.987 4.32 2.525-0.182 4.917-0.805 7.194-1.926 2.64-1.327 4.489-3.408 5.58-6.14 0.612-1.587 0.939-3.226 1.145-4.893 0.495-4.191 0.131-8.38-0.546-12.49-1.431-8.534-2.967-17.070-4.462-25.583-1.6-9.157-3.226-18.294-4.826-27.425-1.771-10.069-3.539-20.114-5.308-30.185-0.027-0.286-0.027-0.57-0.053-0.912 8.381 0 16.681 0 25.035 0 0.078 0.342 0.157 0.626 0.208 0.912 1.067 5.751 2.146 11.498 3.226 17.254 1.757 9.472 3.513 18.922 5.294 28.363 1.666 9.004 3.331 17.984 5.024 26.986 1.052 5.516 2.119 11.057 2.25 16.732 0.142 5.698-0.273 11.32-1.901 16.808-2.911 9.708-9.029 16.577-18.421 20.507zM630.742 495.353c-0.559 0-0.959 0-1.349 0-7.915 0-15.82 0-23.731 0.025-0.912 0-1.38-0.284-1.822-1.067-9.393-16.888-18.829-33.749-28.259-50.637-6.35-11.343-12.699-22.717-19.049-34.091-0.182-0.342-0.391-0.679-0.597-0.992-0.066 0.031-0.144 0.053-0.209 0.078-6.324 28.65-12.659 57.277-18.996 85.925-8.288 0-16.471 0-24.762 0 10.448-42.988 20.884-85.925 31.344-128.989 0.508 0 0.872 0 1.251 0 2.394 0 4.775 0.053 7.158 0 0.872-0.025 1.327 0.264 1.771 0.992 5.044 8.509 10.149 16.963 15.261 25.448 20.402 33.959 40.803 67.919 61.218 101.905 0.226 0.415 0.459 0.83 0.772 1.404zM985.723 489.237c-6.089 0-12.073 0-18.15 0-0.209-1.249-0.442-2.498-0.705-3.827 1.302 0 2.39 0 3.535-0.025 1.132-0.027 2.263 0.129 3.452-0.131-1.223-6.532-2.445-13.009-3.668-19.541 1.491 0 2.845 0 4.211 0 1.262 6.583 2.485 13.087 3.75 19.674 2.356 0.051 4.582-0.027 6.816 0.051 0.277 1.329 0.526 2.552 0.759 3.799z" horiz-adv-x="1114" />
<glyph unicode="&#xe60b;" d="M829.98 800.806c-360.936-388.445-465.46-665.086-465.46-665.086 78.394-90.955 212.002-83.291 212.002-83.291 140.83-4.4 227.074 82.914 227.074 82.914 175.007 176.255 153.457 676.894 153.457 676.894-35.364 77.012-127.073-11.431-127.073-11.431zM273.188 497.035c0 0-55.215-110.429 35.929-296.236l242.216 532.418c-2.764-1.006-218.471-76.256-278.145-236.183z" horiz-adv-x="1215" />
<glyph unicode="&#xe60c;" d="M1024 768h-384l-128 128h-384v-128h-128v-768h896v128h128v640zM960 192h-64v448h-384l-128 128h-192v64h293.5l128-128h346.5v-512z" />
<glyph unicode="&#xe60e;" d="M1097.143 850.286h-548.571l-109.714 109.714h-365.714c-40.375 0-73.143-32.768-73.143-73.143v-877.714c0-40.411 32.768-73.143 73.143-73.143h1024c40.375 0 73.143 32.768 73.143 73.143v768c0 40.411-32.768 73.143-73.143 73.143zM1060.571 45.714h-950.857v512h950.857v-512zM1060.571 667.429h-950.857v182.857h283.685l109.714-109.714h557.458v-73.143z" horiz-adv-x="1170" />
<glyph unicode="&#xe60f;" d="M926.42 865.669l-1.066 0.52c0.992-52.839 8.885-288.798 70.088-155.182 0-0.002-45.235-54.095-69.023 154.662zM994.895 920.28h-497.295c-22.278 0-40.307-18.136-40.307-40.333v-497.348c0-8.438 2.758-16.253 7.295-22.824-24.804-14.175-51.46-21.050-80.616-21.050h-0.028c-47.525 0-104.015 16.573-177.751 52.008l-25.354 12.193-1.482-28.033c-0.131-2.604-2.84-64.722 44.788-114.958 42.079-44.292 108.131-64.826 197.733-60.654-0.623-43.774 4.848-142.995 61.756-207.614l13.939-15.945 14.072 15.743c2.266 2.604 55.234 63.68 99.064 270.348 44.242 17.924 156.825 80.563 156.825 80.563h227.36c22.25 0 40.329 18.031 40.329 40.228v497.344c0.004 22.199-18.077 40.333-40.327 40.333zM673.107 848.37l102.084 9.591c-55.86-53.159-111.62-190.105-111.62-190.105l-2.108 7.085-0.679 2.191-0.288 2.397-4.094 32.518-4.691 37.104-0.464 3.646 0.494 3.649 4.378 32.306-3.618 28.872-3.076 24.387 23.681 6.358zM1021.158 687.344c-16.1-13.443-44.139-47.63-52.661-71.601-74.149-207.612-377.62-321.528-380.618-322.669l-9.716-3.648-2.062-10.107c-28.712-139.453-61.569-211.369-79.362-242.738-45.574 72.746-36.689 179.889-36.584 181.137l1.981 22.203-22.25-1.875c-87.155-7.505-151.042 8.543-188.146 47.314-18.188 18.97-26.942 40.543-31.137 57.531 64.619-28.243 117.121-41.587 163.342-41.587h0.028c116.363 0 196.689 83.69 268.627 279.838 12.669 34.604 27.575 67.955 44.74 100.054 0 0 99.64 222.305 200.081 227.83 41.742 1.562 54.244-2.292 54.244-2.292 42.55-6.777 69.493-33.457 69.493-74.417v-144.973z" horiz-adv-x="1215" />
<glyph unicode="&#xe610;" d="M1005.248 717.28l-192 192c-12 12-28.32 18.72-45.248 18.72h-672c-52.928 0-96-43.040-96-96v-768c0-52.928 43.072-96 96-96h832c52.928 0 96 43.072 96 96v608c0 16.992-6.752 33.28-18.752 45.28zM960 64c0-17.696-14.304-32-32-32h-832c-17.696 0-32 14.304-32 32v768c0 17.696 14.304 32 32 32h640v-128h-0.064c0-53.024 43.008-96 96-96h128.064v-576zM863.936 672h-32c-35.264 0-64 28.704-64 64h0.064v128l192-192h-96.064zM496 704h160c8.8 0 16 7.168 16 16s-7.2 16-16 16h-160c-8.832 0-16-7.136-16-16s7.168-16 16-16zM496 608h160c8.8 0 16 7.168 16 16s-7.2 16-16 16h-160c-8.832 0-16-7.168-16-16s7.168-16 16-16zM480 528c0-8.832 7.168-16 16-16h384c8.8 0 16 7.168 16 16s-7.2 16-16 16h-384c-8.832 0-16-7.136-16-16zM880 352h-736c-8.832 0-16-7.136-16-16 0-8.8 7.168-16 16-16h736c8.8 0 16 7.2 16 16 0 8.864-7.2 16-16 16zM880 256h-736c-8.832 0-16-7.136-16-16 0-8.8 7.168-16 16-16h736c8.8 0 16 7.2 16 16 0 8.864-7.2 16-16 16zM880 160h-736c-8.832 0-16-7.136-16-16 0-8.8 7.168-16 16-16h736c8.8 0 16 7.2 16 16 0 8.864-7.2 16-16 16zM880 448h-736c-8.832 0-16-7.136-16-16s7.168-16 16-16h736c8.8 0 16 7.168 16 16s-7.2 16-16 16zM160 512h224c17.696 0 32 14.304 32 32v192c0 17.696-14.304 32-32 32h-224c-17.696 0-32-14.304-32-32v-192c0-17.664 14.304-32 32-32zM192 704h160v-128h-160v128z" />
<glyph unicode="&#xe611;" d="M919.308 493.254l-181.062-181c-99.938-100-262.062-100-362 0-15.75 15.688-28.062 33.376-38.876 51.626l84.126 84.126c4 4.032 8.938 6.344 13.656 9.062 5.812-19.876 15.968-38.688 31.594-54.312 49.906-49.938 131.126-49.876 181 0l181 181c49.938 49.938 49.938 131.126 0 181.032-49.876 49.906-131.062 49.906-181 0l-64.376-64.438c-52.218 20.344-108.5 25.812-163.282 17.782l137.156 137.156c100 99.968 262.062 99.968 362.062 0 99.94-99.972 99.94-262.066 0.002-362.034zM440.652 195.628l-64.406-64.438c-49.906-49.876-131.126-49.876-181.032 0-49.906 49.938-49.906 131.126 0 181.062l181.032 181c49.938 49.938 131.094 49.938 181 0 15.594-15.594 25.75-34.406 31.626-54.25 4.75 2.75 9.626 5 13.626 9l84.126 84.094c-10.75 18.312-23.126 35.938-38.876 51.656-99.938 99.968-262.062 99.968-362.032 0l-181-181c-99.968-100-99.968-262.062 0-362.062 99.968-99.938 262.062-99.938 362.032 0l137.188 137.188c-54.814-8.062-111.096-2.562-163.284 17.75z" />
<glyph unicode="&#xe612;" d="M439.644 520.351c8.187 8.192 19.108 12.698 30.746 12.698s22.559-4.511 30.746-12.698l83.215-83.215c2.883-2.877 6.789-4.5 10.86-4.5s7.982 1.618 10.86 4.5l83.215 83.215c2.883 2.877 4.5 6.789 4.5 10.86s-1.618 7.982-4.5 10.86l-83.215 83.215c-36.255 36.244-84.444 56.202-135.685 56.202s-99.43-19.958-135.685-56.197l-249.656-249.656c-36.255-36.255-56.223-84.449-56.223-135.706 0-51.261 19.968-99.441 56.228-135.67l83.21-83.21c36.224-36.255 84.408-56.223 135.665-56.223s99.451 19.968 135.711 56.223l140.687 140.687c4.526 4.526 5.77 11.382 3.128 17.208-2.504 5.514-7.992 9.011-13.983 9.011-0.343 0-0.681-0.010-1.029-0.036-4.951-0.333-9.969-0.497-14.92-0.497-39.076 0-77.507 10.388-111.13 30.044-2.417 1.413-5.089 2.099-7.747 2.099-3.973 0-7.905-1.541-10.865-4.5l-89.078-89.078c-8.202-8.202-19.118-12.723-30.74-12.723-11.628 0-22.554 4.516-30.756 12.723l-83.215 83.215c-8.212 8.192-12.733 19.092-12.744 30.7-0.005 11.633 4.516 22.569 12.744 30.797l249.656 249.651zM938.947 791.757l-83.215 83.215c-36.229 36.239-84.408 56.202-135.665 56.202s-99.451-19.958-135.706-56.197l-140.692-140.749c-4.526-4.526-5.77-11.387-3.123-17.213 2.504-5.509 7.992-9.006 13.978-9.006 0.343 0 0.691 0.010 1.039 0.036 4.997 0.338 10.061 0.507 15.058 0.507 39.153 0 77.496-10.383 110.889-30.029 2.427-1.428 5.115-2.12 7.782-2.12 3.973 0 7.905 1.541 10.865 4.5l89.139 89.139c8.187 8.192 19.108 12.698 30.746 12.698s22.559-4.511 30.746-12.698l83.215-83.215c16.937-16.957 16.937-44.564-0.005-61.532l-249.646-249.646c-8.187-8.207-19.087-12.723-30.7-12.723-11.638 0-22.579 4.521-30.812 12.733l-83.195 83.2c-2.883 2.877-6.789 4.5-10.86 4.5s-7.982-1.618-10.86-4.5l-83.215-83.215c-6.001-6.001-6.001-15.724 0-21.724l83.215-83.215c36.255-36.255 84.444-56.223 135.685-56.223s99.43 19.968 135.685 56.223l249.651 249.651c36.255 36.239 56.223 84.434 56.223 135.7s-19.968 99.461-56.223 135.7z" />
<glyph unicode="&#xe613;" d="M585.92 599.488c-11.2 7.2-24.256 9.152-36.32 6.464-11.936-2.656-22.88-9.856-30.016-20.96-7.168-11.168-9.12-24.16-6.464-36.16 2.624-12 9.824-23.008 20.96-30.144 46.304-29.664 73.92-80.032 73.92-134.688 0-42.752-16.64-82.912-46.848-113.12l-192-192c-30.24-30.24-70.432-46.88-113.152-46.88-88.224 0-160 71.776-160 160 0 42.752 16.64 82.912 46.848 113.12l91.072 91.104c9.6 9.6 14.272 22.24 14.080 34.816-0.224 12-4.896 23.904-14.080 33.056-9.376 9.376-21.664 14.080-33.92 14.080-12.288 0-24.576-4.672-33.92-14.080l-91.072-91.104c-48.384-48.32-75.008-112.608-75.008-180.992 0-141.152 114.848-256 256-256 68.384 0 132.672 26.624 181.024 75.008l192 192c48.352 48.288 74.976 112.608 74.976 180.992 0 87.52-44.128 168.064-118.080 215.488zM768 960c-68.384 0-132.672-26.624-181.024-75.008l-192-192c-48.352-48.288-74.976-112.608-74.976-180.96 0-87.52 44.128-168.096 118.080-215.52 11.2-7.168 24.256-9.12 36.32-6.432 11.936 2.624 22.88 9.824 30.016 20.928 7.168 11.2 9.12 24.192 6.464 36.192-2.624 12-9.824 23.008-20.96 30.112-46.272 29.696-73.92 80.064-73.92 134.72 0 42.752 16.64 82.912 46.848 113.12l192 192c30.24 30.208 70.432 46.848 113.152 46.848 88.224 0 160-71.776 160-159.968 0-42.752-16.64-82.912-46.848-113.12l-91.072-91.072c-9.6-9.6-14.272-22.24-14.080-34.816 0.224-12 4.896-23.904 14.080-33.056 9.376-9.376 21.664-14.048 33.952-14.048s24.576 4.672 33.92 14.048l91.072 91.104c48.352 48.256 74.976 112.576 74.976 180.96 0 141.12-114.848 255.968-256 255.968z" />
<glyph unicode="&#xe614;" d="M512.064 392.128c105.888 0 192 86.144 192 192s-86.112 192-192 192c-105.888 0-192-86.112-192-192s86.112-192 192-192zM512.064 744.128c88.256 0 160-71.744 160-160s-71.744-160-160-160c-88.256 0-160 71.744-160 160s71.744 160 160 160zM512 960c-211.776 0-384-170.112-384-384.032 0-224 192.032-453.152 332.032-614.208 0.512-0.64 22.976-25.76 50.752-25.76 0.064 0 2.336 0 2.464 0 27.744 0 50.24 25.12 50.752 25.76 140.064 161.056 332.064 390.176 332.064 614.208 0 213.92-172.256 384.032-384.064 384.032zM515.744 3.744c-0.672-0.64-2.624-2.048-4.32-3.136-0.32 0.864-2.688 2.752-4.128 4.256-117.28 134.944-315.296 362.688-315.296 571.104 0 176.448 143.584 320.032 320 320.032 176.512 0 320.064-143.584 320.064-320.064 0-208.384-198.016-436.128-316.32-572.192z" />
<glyph unicode="&#xe615;" d="M384 128h-64v832h64v-832zM768 768l256 192h-576v-384h576l-256 192zM448 313.25v-65.062c111.626-17.688 192-64.562 192-120.188 0-70.688-128.938-128-288-128s-288 57.312-288 128c0 55.626 80.376 102.5 192 120.188v65.062c-138.25-19.688-256-82.5-256-185.25 0-126.062 177.126-192 352-192s352 65.938 352 192c0 102.75-117.75 165.562-256 185.25z" />
<glyph unicode="&#xe616;" d="M1094.781 551.958c-5.45 124.516-20.338 248.739-45.358 371.462-3.621 17.631-17.265 31.531-34.823 35.482-3.329 0.732-6.694 1.097-10.023 1.097-14.229 0-27.873-6.657-36.616-18.363-114.164-152.974-309.534-237.436-492.43-237.436h-219.476c-141.415 0-256.055-114.639-256.055-256.055s114.639-256.055 256.055-256.055c0-95.070 38.664-184.396 106.994-249.068 5.194-4.902 12.181-7.462 19.314-6.95 7.133 0.476 13.754 3.914 18.253 9.474l59.953 74.366c8.194 10.132 7.499 24.764-1.683 34.055-36.14 36.616-56.515 85.852-56.515 138.123h73.159c182.896 0 378.266-84.462 492.43-237.436 8.742-11.705 22.387-18.363 36.616-18.363 3.329 0 6.694 0.366 9.986 1.097 17.631 3.914 31.239 17.814 34.823 35.482 25.057 122.723 39.945 246.947 45.358 371.462 43.895 14.339 75.792 55.125 75.792 103.812 0 48.65-31.897 89.436-75.756 103.812zM402.372 301.829h-146.317c-80.694 0-146.317 65.623-146.317 146.317s65.623 146.317 146.317 146.317h146.317v-292.634zM963.827 119.701c-121.443 106.665-283.709 171.959-451.717 180.409v296.036c168.009 8.45 330.274 73.744 451.717 180.446 32.117-218.451 32.117-438.476 0-656.89z" horiz-adv-x="1171" />
<glyph unicode="&#xe617;" d="M796.011 819.865c-154.977 77.449-306.355 59.678-446.514-42.524l-22.367-17.257-28.992-4.108c0 0-45.862-6.882-68.795-10.375l44.629-41.803-15.203-22.187c-45.479-67.282-71.233-141.548-71.311-222.488-0.23-173.897 76.447-306.198 231.779-383.438 155.719-77.447 307.486-58.553 448.587 44.062l20.52 14.072 101.386 17.36-48.586 42.833c57.11 77.447 87.105 159.419 85.871 249.912-2.256 170.302-78.856 299.931-231.005 375.941zM919.348 247.733c-3.314-5.136-7.061-9.861-13.661-18.898l-38.725 38.108-13.866-97.48-19.387-14.586c-122.803-87.512-254.535-104.053-389.66-37.697-134.096 65.74-204.046 178.111-207.975 328.799-1.979 75.083 20.107 143.699 61.579 206.151 2.542 3.8 5.751 9.246 13.096 18.386l36.773-40.982c3.929 26.088 6.807 52.385 12.3 78.167l3.544 17.664 12.403 10.891c139.052 114.527 345.566 106.927 483.564-17.051 132.251-118.846 158.137-322.225 60.015-471.473zM683.895 365.856c6.702 29.17 13.969 58.241 20.032 87.616 3.953 19.208-2.671 29.275-17.41 29.89-18.898 0.619-37.259-13.044-41.629-31.532-7.035-29.787-13.508-59.783-21.159-89.364l-3.312-13.866-65.611-0.206c1.439 6.575 2.131 9.76 2.876 12.941 6.908 29.89 14.201 59.577 20.647 89.568 4.467 20.647-1.617 31.534-16.666 32.355-18.335 1.131-37.416-13.044-41.676-31.018-7.035-29.787-13.534-59.783-21.186-89.368l-3.594-14.481-65.738-0.103c11.222 49.2 21.597 94.599 32.228 141.235-35.874 0-69.642 0-103.051 0-23.367-98.608 33.228-242.722 178.394-284.114 147.99-42.216 271.302 54.339 300.883 142.572-52.075 0-103.484 0-157.515 0 1.693 8.734 2.437 13.356 3.489 17.874zM640.959 697.838c-120.334 18.077-246.933-57.11-270.225-155.513h166.966l-0.153-9.964c56.57 28.245 81.916 14.892 112.551-14.485 7.14 5.035 14.020 10.581 21.569 14.999 26.993 15.92 55.367 21.675 82.69 2.772 26.295-18.182 22.982-45.399 16.922-72.311-4.596-20.442-9.065-40.777-13.846-62.252 33.975 0 65.788 0 98.455 0 27.715 142.574-69.122 274.976-214.929 296.754z" horiz-adv-x="1215" />
<glyph unicode="&#xe618;" d="M896 960h-768c-35.344 0-64-28.626-64-64v-896c0-35.376 28.656-64 64-64h576l256 256v704c0 35.374-28.624 64-64 64zM704 26.5v165.5h165.5l-165.5-165.5zM896 256h-192c-35.376 0-64-28.626-64-64v-192h-512v896h768v-640zM192 736c0 17.688 14.312 32 32 32h576c17.688 0 32-14.312 32-32s-14.312-32-32-32h-576c-17.688 0-32 14.312-32 32zM192 544c0 17.688 14.312 32 32 32h576c17.688 0 32-14.312 32-32s-14.312-32-32-32h-576c-17.688 0-32 14.312-32 32zM192 352c0 17.688 14.312 32 32 32h576c17.688 0 32-14.312 32-32s-14.312-32-32-32h-576c-17.688 0-32 14.312-32 32z" />
<glyph unicode="&#xe619;" d="M704 192h256l-256-256v256zM640 224v-288h-512c-35.344 0-64 28.626-64 64v896c0 35.374 28.656 64 64 64h768c35.376 0 64-28.626 64-64v-640h-288c-17.688 0-32-14.312-32-32zM192 736c0-17.688 14.312-32 32-32h576c17.688 0 32 14.312 32 32s-14.312 32-32 32h-576c-17.688 0-32-14.312-32-32zM192 544c0-17.688 14.312-32 32-32h576c17.688 0 32 14.312 32 32s-14.312 32-32 32h-576c-17.688 0-32-14.312-32-32zM800 320c17.688 0 32 14.312 32 32s-14.312 32-32 32h-576c-17.688 0-32-14.312-32-32s14.312-32 32-32h576z" />
<glyph unicode="&#xe61a;" d="M1070.261 674.945c-26.763-12.508-73.109-70.694-73.109-70.694-4.894 1.51-11.661 2.358-19.458 2.719v176.186c0 26.828-21.75 48.578-48.576 48.578h-225.246c-1.935 10.816-4.348 20.361-7.43 26.283 0 0 49.543 55.526 57.34 84.045 0 0-1.695 20.361-77.703-85.736l-0.056-24.592h-346.039c-26.824 0-48.576-21.75-48.576-48.578v-127.125l-36.979-14.56c0 0-4.108-14.741 36.979-7.372v-174.554c-40.847-47.427-100.056-117.218-106.339-130.268-9.668-20-20.301-97.034-32.75-114.073 0 0 21.452-11.175 50.15 110.388l88.939 90.271v-231.894c0-26.832 21.752-48.578 48.576-48.578h337.511l-103.382-122.834c-118.361-39.882-105.25-60.18-105.25-60.18 15.771 13.957 91.477 31.784 110.57 43.266 14.562 8.7 101.086 98.3 140.78 139.752h166.338c3.624-5.14 7.853-3.203 7.853-3.203l0.665 3.203h44.046c26.828 0 48.578 21.748 48.578 48.578v396.234l21.147 3.685c91.84 92.807 71.42 91.055 71.42 91.055zM776.132 816.509c27.914 1.391 40.966 2.417 42.716-19.335 0 0-41.633 6.346-71.839-10.996 0 0 1.207 29.001 29.122 30.331zM388.834 297.377c-7.491 6.283-11.901 10.996-11.901 10.996-2.235 5.078-4.29 10.032-6.346 14.989-5.801 10.147-9.726 20.299-11.236 30.146-85.256 253.585 118.786 317.146 241.561 342.22 2.294-15.951 13.592-74.681 59.694-122.471l-2.899 2.235-216.064-329.414c-18.367 15.168-37.459 32.812-52.807 51.299zM507.14 198.525c0 0-30.148 18.674-63.321 45.798l258.177 296.246c34.618-20.724 80.783-34.562 142.654-33.292 0 0 0.24-4.229 0.603-1.812-0.123-123.684-13.838-389.953-338.112-306.94zM860.964 526.189c-226.58-4.654-244.282 192.619-244.282 192.619 95.766 29.607 149.54-10.694 186.033-37.4 76.131-55.889 58.249-155.219 58.249-155.219zM889.36 643.102c-9.792-33.957 26.584 10.696-147.551 112.263l1.937 4.775c0 0 64.772 20.964 113.348-17.825 42.661-34.199 42.055-65.256 32.266-99.213zM919.449 662.798c10.873 32.99-3.626 72.567-3.626 72.567 21.693 2.657 23.199-10.331 27.553-37.946 4.229-27.61-23.927-34.622-23.927-34.622z" horiz-adv-x="1215" />
<glyph unicode="&#xe61b;" d="M863.936 511.904h0.064c0.064-8.768 7.2-15.872 16-15.872s16 7.136 16 15.968c0 0.096-0.064 0.16-0.064 0.256-0.192 176.288-142.88 319.136-319.136 319.552-0.224 0.064-0.48 0.192-0.8 0.192-8.864 0-16-7.168-16-16 0-8.8 7.136-15.968 15.936-16v-0.128c158.816 0.032 288-129.184 288-287.968zM291.872 931.904c-18.336 18.368-42.912 28.096-67.904 28.096-12.352 0-24.8-2.368-36.672-7.296-35.904-14.848-59.296-49.856-59.296-88.704l-0.032-440.224-99.84-99.904c-37.504-37.44-37.504-98.24 0-135.744l224-224c18.752-18.752 43.296-28.128 67.872-28.128s49.12 9.376 67.872 28.128l99.872 99.872h440.192c38.88 0 73.888 23.36 88.672 59.264 14.88 35.872 6.688 77.184-20.8 104.64l-703.936 704zM442.496 109.248l-99.872-99.872c-8.16-8.128-17.696-9.376-22.624-9.376s-14.464 1.248-22.624 9.376l-224 224c-8.16 8.192-9.376 17.696-9.376 22.624s1.216 14.496 9.376 22.624l99.84 99.872c0.288 0.32 0.384 0.672 0.672 0.992l269.6-269.632c-0.288-0.224-0.704-0.288-0.992-0.608zM487.744 128c-4.96 0-9.568-1.76-14.304-2.816l-284.32 284.32c1.088 4.736 2.848 9.344 2.848 14.272l0.032 385.472 681.184-681.248h-385.44zM957.504 147.744c-4.928-12-16.576-19.744-29.568-19.744h-9.504l-726.432 726.496v9.504c0 12.992 7.744 24.608 19.744 29.568 3.936 1.632 8.032 2.432 12.224 2.432 8.576 0 16.608-3.328 22.624-9.344l703.968-704.032c9.184-9.184 11.936-22.88 6.944-34.88zM575.936 896v-0.128c211.744 0 384-172.256 384-384h0.064c0.064-17.6 14.368-31.872 32-31.872 17.696 0 32 14.304 32 32 0 0.096-0.064 0.16-0.064 0.256-0.192 246.976-200.192 447.136-447.136 447.584-0.224 0.032-0.48 0.16-0.8 0.16-17.696 0-32-14.304-32-32 0-17.632 14.304-31.968 31.936-32z" />
<glyph unicode="&#xe61c;" d="M678.821 902.084c-303.253 0-540.822-155.26-540.822-353.492 0-11.22 0.999-22.212 2.453-33.069 31.797 22.758 68.909 41.609 109.836 56.099 21.349 121.601 208.816 220.262 428.487 220.262 233.435 0 430.622-111.471 430.622-243.338 0-94.664-101.75-178.563-245.337-218.491 1.226-9.675 1.999-19.442 1.999-29.435 0-30.843-6.314-60.46-17.806-88.305 217.719 45.561 371.253 176.973 371.253 336.276 0.136 198.232-237.433 353.492-540.685 353.492zM442.115 548.592c-69.635 0-133.956-12.583-188.965-34.25-37.293-14.717-70.362-33.523-97.481-55.781-51.784-42.563-82.491-97.39-82.491-157.94 0-49.24 20.668-94.528 56.099-132.73l-39.065-173.93 180.97 86.261c50.875-17.579 108.791-27.482 170.977-27.482 153.988 0 283.039 60.369 339.047 148.583 19.214 30.298 29.935 63.776 29.935 99.298 0 5.633-0.681 11.174-1.226 16.716-12.537 130.867-169.342 231.255-367.801 231.255zM609.412 198.098c-43.971-20.986-100.797-35.204-167.298-35.204-152.535 0-258.782 72.588-258.782 137.726 0 21.213 12.265 43.062 32.751 63.094 22.985 22.44 57.28 42.063 100.479 55.645 36.476 11.492 78.448 18.987 125.553 18.987 148.492 0 252.287-68.772 257.737-132.503 0.182-1.726 1.045-3.498 1.045-5.224-0.045-36.748-34.659-75.359-91.485-102.523z" horiz-adv-x="1293" />
<glyph unicode="&#xe61d;" d="M990.849 427.492c-0.187 0.189-0.373 0.31-0.494 0.5-17.001 18.174-43.369 26.241-85.498 26.241-15.136 0-35.608-1.054-55.713-3.225l0.312 338.563c0 26.491-21.528 48.021-48.021 48.021h-592.068c-26.491 0-47.957-21.532-47.957-48.021v-592.005c0-26.555 21.464-48.019 47.957-48.019h158.954c3.161-4.838 6.448-9.68 10.173-14.209 41.938-50.998 115.273-76.931 218.013-76.931 78.298 0 159.204 14.515 212.807 24.133l19.605 3.475c65.084 11.288 100.57 25.622 122.719 49.2 9.551 3.596 21.839 9.986 26.672 19.793 2.489 5.269 2.856 11.040 0.869 16.376-1.613 4.279-4.467 7.692-8.001 10.486 2.542 3.534 4.658 7.071 6.513 10.671 7.757 3.846 15.759 9.371 19.357 16.813 2.608 5.217 2.854 11.042 0.869 16.38-2.11 5.523-6.267 9.617-11.357 12.782-0.185 3.35-0.435 6.64-0.869 9.865 1.181 1.798 2.237 3.598 3.29 5.4 11.851 4.156 29.158 12.221 35.491 25.312 3.1 6.327 3.469 13.403 0.992 19.855-4.221 11.476-15.759 18.055-27.92 21.96 0.31 1.488 0.869 2.917 2.11 4.156 2.667 4.965 6.448 10.117 9.617 15.699 14.332 5.398 33.377 15.013 40.639 29.964 3.782 7.757 4.215 16.444 1.238 24.384-8.43 22.52-39.509 29.9-60.297 32.381zM978.253 341.379l-73.522-10.921 70.543-7.815c5.525-16.938 10.115-48.644-18.92-75.812 0 0 0.31-0.746 0.806-1.986l-58.009-7.698 61.422-5.953c1.488-9.678 1.115-22.395-6.082-34.308l-48.33-14.084 39.15 1.054c-0.123-7.634-7.505-40.077-119.991-59.624-128.177-22.272-487.648-100.324-431.936 181.163 55.713 281.485 356.741 404.083 418.038 404.083v-271.001c-33.254-5.273-62.718-11.044-88.655-16.817-28.726 3.913-97.161 11.603-132.896 0.744l81.462-13.588c-73.333-20.105-105.162-37.973-105.162-37.973 85.246 24.693 181.042 39.464 225.524 45.542 75.629 8.377 159.077 2.977 175.767-14.832 28.537-30.456 19.416-50.43 10.792-60.174z" horiz-adv-x="1215" />
<glyph unicode="&#xe61e;" d="M800 128h128c35.328 0 64 28.64 64 64v704c0 35.328-28.672 64-64 64h-128c-35.328 0-64-28.672-64-64v-704c0-35.36 28.672-64 64-64zM832 864h64v-640h-64v640zM96 128h128c35.328 0 64 28.64 64 64v192c0 35.328-28.672 64-64 64h-128c-35.328 0-64-28.672-64-64v-192c0-35.36 28.672-64 64-64zM128 352h64v-128h-64v128zM976 32h-928c-26.528 0-48-21.504-48-48s21.472-48 48-48h928c26.528 0 48 21.504 48 48s-21.472 48-48 48zM448 128h128c35.328 0 64 28.64 64 64v448c0 35.328-28.64 64-64 64h-128c-35.36 0-64-28.672-64-64v-448c0-35.36 28.672-64 64-64zM480 608h64v-384h-64v384z" />
<glyph unicode="&#xe61f;" d="M960 960h-640c-35.328 0-64-28.64-64-64v-192h-192c-35.328 0-64-28.64-64-64v-640c0-35.328 28.672-64 64-64h640c35.36 0 64 28.672 64 64v192h192c35.328 0 64 28.672 64 64v640c0 35.36-28.672 64-64 64zM672 32h-576v576h160v-352c0-35.36 28.672-64 64-64h352v-160zM928 288h-576v576h576v-576z" />
<glyph unicode="&#xe620;" d="M432 224c132.576 0 240 107.424 240 240v256c0 132.576-107.424 240-240 240s-240-107.424-240-240v-256c0-132.576 107.424-240 240-240zM288 720c0 79.392 64.608 144 144 144s144-64.608 144-144v-256c0-79.392-64.608-144-144-144s-144 64.608-144 144v256zM816 512c-26.496 0-48-21.472-48-48 0-185.28-150.752-336-336-336s-336 150.72-336 336c0 26.496-21.504 48-48 48s-48-21.504-48-48c0-222.368 168.032-405.28 384-429.184v-50.816c0-26.496 21.504-48 48-48s48 21.504 48 48v50.816c215.968 23.904 384 206.816 384 429.184 0 26.496-21.504 48-48 48z" horiz-adv-x="864" />
<glyph unicode="&#xe621;" d="M810.56 645.12l-112-193.984c-17.696-30.592-56.8-41.088-87.424-23.392l-27.68 16 32 55.392c15.296-8.8 34.88-3.584 43.68 11.712l80 138.56c8.832 15.328 3.584 34.88-11.68 43.712l-110.88 64c-15.328 8.832-34.88 3.584-43.68-11.712l-80-138.56c-8.864-15.328-3.616-34.88 11.68-43.712l-32-55.392-27.68 16c-30.624 17.664-41.12 56.8-23.424 87.392l112 193.984c17.696 30.624 56.8 41.088 87.424 23.424l166.24-96c30.624-17.664 41.12-56.8 23.424-87.424zM432 309.44c-15.328 8.832-20.576 28.416-11.712 43.712l128 221.696c8.832 15.328 28.416 20.576 43.712 11.712s20.576-28.416 11.68-43.712l-128-221.696c-8.8-15.296-28.352-20.512-43.68-11.712zM408.576 396.832v0c-15.328 8.832-34.88 3.584-43.712-11.68l-80-138.56c-8.832-15.328-3.584-34.88 11.712-43.712l110.88-64c15.296-8.832 34.88-3.584 43.68 11.712l80 138.56c8.832 15.296 3.584 34.88-11.68 43.712v0l32 55.392 27.68-16c30.624-17.664 41.12-56.768 23.424-87.392l-112-193.984c-17.696-30.624-56.8-41.088-87.424-23.424l-166.272 96c-30.624 17.696-41.12 56.8-23.424 87.424l112 193.984c17.696 30.624 56.832 41.12 87.456 23.424l27.68-16-32-55.456z" />
<glyph unicode="&#xe622;" d="M352 480h32v32h-32v-32zM352 384h32v32h-32v-32zM352 576h32v32h-32v-32zM352 288h32v32h-32v-32zM352 192h32v32h-32v-32zM416 384h256v32h-256v-32zM416 576h256v32h-256v-32zM670.016 832h-446.016v-768h576v640l-129.984 128zM736 129.984h-448v638.016h320v-94.016h128v-544zM416 288h256v32h-256v-32zM416 480h256v32h-256v-32zM416 192h256v32h-256v-32z" />
<glyph unicode="&#xe623;" d="M896 832h-768c-35.36 0-64-28.672-64-64v-640c0-35.328 28.64-64 64-64h768c35.328 0 64 28.672 64 64v640c0 35.328-28.672 64-64 64zM369.984 784c17.664 0 31.968-14.336 31.968-32s-14.304-32-31.968-32c-17.696 0-32 14.336-32 32s14.336 32 32 32zM272 784c17.664 0 32-14.336 32-32s-14.336-32-32-32c-17.696 0-32 14.336-32 32s14.304 32 32 32zM175.968 784c17.696 0 32-14.336 32-32s-14.304-32-32-32c-17.664 0-31.968 14.336-31.968 32s14.304 32 31.968 32zM896 128h-768v543.328h768v-543.328zM896 735.328h-448v32h448v-32z" />
<glyph unicode="&#xe624;" d="M524.832 130.848v-95.84c95.84-5.184 169.984-36.928 169.984-66.496 0-0.736-393.024-0.736-393.024 0 0 28.512 68.608 59.232 159.328 66.048v96.672c-115.808 16.608-205.12 115.2-205.12 235.616v47.776h31.872v-47.776c0-114.368 92.704-207.104 207.072-207.136h0.128c114.368 0.032 209.056 92.736 209.056 207.136v47.776h31.872v-47.776c0-121.792-93.408-221.152-211.168-236zM494.976 193.568c-96.768 0-175.296 78.496-175.296 175.296v45.792h352.576v-45.792c0-96.8-80.512-175.296-177.28-175.296zM319.68 720.8c0 96.8 78.496 175.264 175.296 175.264s177.28-78.464 177.28-175.264v-274.304h-352.576v274.304z" />
<glyph unicode="&#xe625;" d="M524.8 130.048v-95.776c95.744-5.152 169.76-36.832 169.76-66.4 0-0.736-392.576-0.736-392.576 0 0 28.448 68.544 59.168 159.136 65.984v96.576c-115.648 16.576-204.864 115.104-204.864 235.328v49.76h31.84v-49.76c0-114.24 92.608-206.88 206.848-206.912h0.128c114.24 0.032 206.848 92.672 206.848 206.912v49.76h33.856v-49.76c-0.032-121.632-93.344-220.896-210.976-235.712zM496 193.44c-97.12 0-175.808 78.688-175.808 175.808v79.264h143.84v31.968h-143.84v31.968h143.84v31.936h-143.84v31.968h143.84v31.968h-143.84v31.968h143.84v31.968h-143.84v50.624c0 97.088 78.688 173.824 175.808 173.824 97.088 0 175.808-76.704 175.808-173.824v-50.624h-143.872v-31.968h143.872v-31.968h-143.872v-31.968h143.872v-31.968h-143.872v-31.936h143.872v-31.968h-143.872v-31.968h143.872v-79.264c0-97.12-78.72-175.808-175.808-175.808z" />
<glyph unicode="&#xe626;" d="M127.584 832h-31.584v-768h832v30.816l-799.872 1.6-0.544 735.584zM544 800c0 17.696-14.336 32-32 32h-96c-17.696 0-32-14.304-32-32v-640h160v640zM352 608c0 17.664-14.336 32-32 32h-96c-17.696 0-32-14.336-32-32v-448h160v448zM736 416c0 17.696-14.336 32-32 32h-96c-17.696 0-32-14.304-32-32v-256h160v256zM896 256h-96c-17.696 0-32-14.304-32-32v-64h160v64c0 17.696-14.336 32-32 32z" />
<glyph unicode="&#xe627;" d="M269.792 667.040h670.656c69.056 0 69.056 71.616 2.688 71.616h-463.552c-26.56 0-39.808 39.808-39.808 39.808s-18.592 58.4-55.776 58.4h-345.248c-50.432 0-37.184-58.4-37.184-58.4s77.024-655.040 82.336-694.88 46.496-51.584 46.496-51.584l90.272 579.296c6.656 42.464 35.84 54.4 49.12 55.744zM1077.056 641.856h-786.016c-23.456 0-42.496-19.008-42.496-42.464l-82.304-524.8c0-23.488 19.040-42.496 42.496-42.496h786.016c23.424 0 42.496 19.008 42.496 42.496l82.304 524.8c0 23.456-18.976 42.464-42.496 42.464z" horiz-adv-x="1118" />
<glyph unicode="&#xe628;" d="M912 96c-26.496 0-48 21.504-48 48v576c0 26.496 21.504 48 48 48s48-21.504 48-48v-576c0-26.496-21.504-48-48-48zM672 160c0-35.328-28.672-64-64-64h-288c-35.328 0-64 28.672-64 64v126.688l-127.712 28.416v231.328l704.768 155.296v-543.488l-161.056 35.808v-34.048zM640 201.184l-352 78.368v-119.552c0-17.664 14.336-32 32-32h288c17.696 0 32 14.336 32 32v41.184zM64 288c-17.664 0-32 14.336-32 32v224c0 17.696 14.336 32 32 32s32-14.304 32-32v-224c0-17.664-14.336-32-32-32z" />
<glyph unicode="&#xe629;" d="M757.44 621.344l-31.68-64.608c30.304-25.984 49.504-64.544 49.504-107.552 0-47.424-10.752-90.304-46.496-116.032l30.624-54.624c46.752 41.952 76.192 102.816 76.192 170.592-0.032 68.64-30.272 130.272-78.144 172.224zM992.576 847.584l-44.576-54.080c83.136-90.752 135.744-211.68 135.744-344.448 0-132.544-52.512-253.312-135.36-344.032l44.512-55.2c94.816 106.752 152.256 244.736 152.256 399.232-0.032 154.080-58.208 291.84-152.576 398.528zM874.304 737.088l-39.68-57.056c58.944-59.2 96.32-140.8 96.32-230.944 0-91.968-38.88-175.008-99.936-234.528l41.248-54.752c73.76 75.328 118.176 175.488 118.176 289.248 0 111.648-44.736 213.056-116.128 288.032zM0 575.776v-258.88c0-32.992 28.672-75.328 64-75.328h192.864v414.048h-192.864c-35.328 0-64-46.88-64-79.84zM554.912 844.192l-268.192-184.864v-424l268.192-186.88c35.328 0 86.016 26.752 86.016 59.744v676.256c0 32.992-50.688 59.744-86.016 59.744z" horiz-adv-x="1144" />
<glyph unicode="&#xe62a;" d="M928 368c0-229.76-186.24-416-416-416s-416 186.24-416 416c0 202.56 144.8 371.104 336.48 408.224-10.4 15.328-16.48 33.824-16.48 53.792 0 53.024 42.976 96 96 96 52.992 0 96-42.976 96-96 0-19.936-6.080-38.432-16.512-53.792 191.712-37.12 336.512-205.664 336.512-408.224zM512 880c-26.528 0-48-21.504-48-48s21.472-48 48-48c26.496 0 48 21.504 48 48s-21.504 48-48 48zM544 718.4v-78.4h-64v78.4c-173.472-15.648-310.24-161.088-319.168-336.416h95.168v-61.984h-92.672c21.216-162.144 152.544-287.552 316.672-302.368v78.368h64v-78.368c163.424 14.752 294.304 141.184 316.352 302.368h-92.352v64h95.232c-7.936 176.256-145.152 318.688-319.232 334.4zM304.416 154.816l125.376 283.776 281.92 123.488-123.040-281.408-284.256-125.856zM554.24 404.672c-24.992 24.992-65.536 24.992-90.528 0s-24.992-65.504 0-90.496 65.536-24.992 90.528 0c24.992 24.992 24.992 65.472 0 90.496z" />
<glyph unicode="&#xe62b;" d="M768 544.736c-123.712 0-224-101.056-224-225.76 0-71.040 32.64-134.304 83.488-175.712-65.792-48.8-115.488-79.616-115.488-79.616s-448 276.864-448 499.904c0 134.4 82.656 268.768 240 268.768 144 0 208-137.472 208-137.472s56 137.472 208 137.472 237.312-131.68 237.312-268.768c0-30.656-8.704-62.176-22.912-93.824-40.992 45.952-100.288 75.008-166.4 75.008zM768 512.512c106.016 0 192-86.624 192-193.504s-85.984-193.536-192-193.536c-106.048 0-192 86.656-192 193.536s85.952 193.504 192 193.504zM672 286.752h64v-64.512h64v64.512h64v64.512h-64v64.512h-64v-64.512h-64v-64.512z" />
<glyph unicode="&#xe62c;" d="M768 544.736c-123.712 0-224-101.056-224-225.76 0-71.040 32.64-134.304 83.488-175.712-65.792-48.8-115.488-79.616-115.488-79.616s-448 276.864-448 499.904c0 134.4 82.656 268.768 240 268.768 144 0 208-137.472 208-137.472s56 137.472 208 137.472 237.312-131.68 237.312-268.768c0-30.656-8.704-62.176-22.912-93.824-40.992 45.952-100.288 75.008-166.4 75.008zM768 512.512c106.016 0 192-86.624 192-193.504s-85.984-193.536-192-193.536c-106.048 0-192 86.656-192 193.536s85.952 193.504 192 193.504zM672 286.752h192v64.512h-192v-64.512z" />
<glyph unicode="&#xe62d;" d="M576 70v-70q0-27-18.5-45.5t-45-18.5-45.5 18.5-19 45.5v70q-137 23-228.5 129.5t-91.5 248.5q0 27 18.5 45.5t45.5 18.5 45.5-18.5 18.5-45.5q0-106 75-181t181-75 181 75 75 181q0 27 19 45.5t45.5 18.5 45-18.5 18.5-45.5q0-142-91.5-248.5t-228.5-129.5zM608 448h96q0-80-56-136t-135.5-56-136 56-56.5 136h96q13 0 22.5 9.5t9.5 22.5-9.5 22.5-22.5 9.5h-96v64h96q13 0 22.5 9.5t9.5 22.5-9.5 22.5-22.5 9.5h-96v64h96q13 0 22.5 9.5t9.5 22.5-9.5 22.5-22.5 9.5h-96q0 80 56.5 136t136 56 135.5-56 56-136h-96q-13 0-22.5-9.5t-9.5-22.5 9.5-22.5 22.5-9.5h96v-64h-96q-13 0-22.5-9.5t-9.5-22.5 9.5-22.5 22.5-9.5h96v-64h-96q-13 0-22.5-9.5t-9.5-22.5 9.5-22.5 22.5-9.5z" />
<glyph unicode="&#xe62e;" d="M960-64h-512q-27 0-45.5 18.5t-18.5 45.5v192h224q31 0 55.5 18t34.5 46h166q13 0 22.5 9.5t9.5 22.5-9.5 22.5-22.5 9.5h-160v128h160q13 0 22.5 9.5t9.5 22.5-9.5 22.5-22.5 9.5h-160v128h256q26 0 45-19t19-45v-576q0-26-18.5-45t-45.5-19zM864 128h-320q-13 0-22.5-9.5t-9.5-22.5 9.5-22.5 22.5-9.5h320q13 0 22.5 9.5t9.5 22.5-9.5 22.5-22.5 9.5zM576 256h-512q-27 0-45.5 18.5t-18.5 45.5v576q0 26 18.5 45t45.5 19h512q27 0 45.5-19t18.5-45v-576q0-27-19-45.5t-45-18.5zM480 832h-320q-13 0-22.5-9.5t-9.5-22.5 9.5-22.5 22.5-9.5h320q13 0 22.5 9.5t9.5 22.5-9.5 22.5-22.5 9.5zM480 640h-320q-13 0-22.5-9.5t-9.5-22.5 9.5-22.5 22.5-9.5h320q13 0 22.5 9.5t9.5 22.5-9.5 22.5-22.5 9.5zM480 448h-320q-13 0-22.5-9.5t-9.5-22.5 9.5-22.5 22.5-9.5h320q13 0 22.5 9.5t9.5 22.5-9.5 22.5-22.5 9.5z" />
<glyph unicode="&#xe62f;" d="M874 86l-45 45q62 62 96.5 143.5t34.5 173-34.5 173-96.5 143.5l45 46q71-71 110.5-164.5t39.5-198-39.5-198-110.5-163.5zM761 199l-45 45q84 84 84 203.5t-84 203.5l45 45q49-48 76-112.5t27-136-27-136-76-112.5zM565-52l-245 243v512l245 244q30 30 75-16v-968q-45-45-75-15zM256 191h-192q-27 0-45.5 19t-18.5 45v385q0 26 18.5 45t45.5 19h192v-513z" />
<glyph unicode="&#xe630;" d="M512-64q-161 0-293 93-35-43-93-68t-126-25q25 0 43.5 76.5t20.5 188.5q-64 115-64 247 0 139 68.5 257t186.5 186.5 257 68.5 257-68.5 186.5-186.5 68.5-257-68.5-257-186.5-186.5-257-68.5zM512 832q-104 0-192.5-51.5t-140-140-51.5-192.5 51.5-192.5 140-140 192.5-51.5 192.5 51.5 140 140 51.5 192.5-51.5 192.5-140 140-192.5 51.5zM704.5 384q-26.5 0-45.5 19t-19 45 19 45 45.5 19 45-19 18.5-45-18.5-45-45-19zM512.5 384q-26.5 0-45.5 19t-19 45 19 45 45 19 45-19 19-45.5-18.5-45-45-18.5zM320.5 384q-26.5 0-45.5 18.5t-19 45.5 19 45.5 45.5 18.5 45-19 18.5-45.5-18.5-45-45-18.5z" />
<glyph unicode="&#xe631;" d="M896 159l128-223-224 128-1 6-168 167-152-151q-42-42-95 10v179l-258 268-13-12q-19-20-46.5-20t-47 19.5-19.5 47 19 47.5l316 315q20 19 47.5 19t47-19 19.5-46.5-20-47.5l-13-13 269-258 179-1q52-52 9-94l-151-151 168-168z" />
<glyph unicode="&#xe632;" d="M1024 895l-256-255 256-256q0-27-19-45.5t-45-18.5v0h-576q-27 0-45.5 18.5t-18.5 45.5v512q0 26 18.5 44.5t45.5 18.5h576q26 0 45-18.5t19-44.5v-1zM384-0.5q0-26.5-18.5-45t-45.5-18.5h-256q-27 0-45.5 18.5t-18.5 45 18.5 45.5 45.5 19h64v832q0 26 19 44.5t45.5 18.5 45-18.5 18.5-44.5v-832h64q27 0 45.5-19t18.5-45.5z" />
<glyph unicode="&#xe636;" d="M832-64l-320 224-320-224q-27 0-45.5 19t-18.5 45v832q0 53 37.5 90.5t90.5 37.5h512q53 0 90.5-37.5t37.5-90.5v-832q0-26-18.5-45t-45.5-19zM589 628l-77 172-77-172-179-24 132-129-34-187 158 92 158-92-34 187 132 129z" />
<glyph unicode="&#xe639;" d="M512 64q-139 0-257 51.5t-186.5 140-68.5 192.5 68.5 192.5 186.5 140 257 51.5 257-51.5 186.5-140 68.5-192.5-68.5-192.5-186.5-140-257-51.5zM288 576h-80q-7 0-11.5-4.5t-4.5-11.5l-64-224q0-7 4.5-11.5t11.5-4.5h32q7 0 11.5 4.5t4.5 11.5l14 48h50q24 0 43 3t40 12 33 29.5 12 51.5q0 40-28 68t-68 28zM544 576h-14l14 48q0 7-4.5 11.5t-11.5 4.5h-32q-7 0-11.5-4.5t-4.5-11.5l-64-224q0-7 4.5-11.5t11.5-4.5h32q7 0 11.5 4.5t4.5 11.5l32 112q46-2 58-33l-26-79q0-7 4.5-11.5t11.5-4.5h32q7 0 11.5 4.5t4.5 11.5l32 96q0 6-5 11-8 30-33.5 49.5t-57.5 19.5zM800 576h-80q-7 0-11.5-4.5t-4.5-11.5l-64-224q0-7 4.5-11.5t11.5-4.5h32q7 0 11.5 4.5t4.5 11.5l14 48h50q24 0 43 3t40 12 33 29.5 12 51.5q0 40-28 68t-68 28zM800 448h-64l18 64h46q13 0 22.5-9.5t9.5-22.5-9.5-22.5-22.5-9.5zM288 448h-64l18 64h46q13 0 22.5-9.5t9.5-22.5-9.5-22.5-22.5-9.5z" />
<glyph unicode="&#xe63a;" d="M960-64h-704q-27 0-45.5 18.5t-18.5 45.5v1h352q40 0 68 28t28 68v320q0 39-28 67.5t-68 28.5h-352v383q0 26 18.5 45t45.5 19h384v-352q0-13 9.5-22.5t22.5-9.5h351l1-1v-575q0-27-18.5-45.5t-45.5-18.5zM704 961q26 0 44-19l257-257q19-18 18-45h-319v321zM448 385v-256q0-27-19-45.5t-45-18.5h-320q-27 0-45.5 18.5t-18.5 45.5v256q0 26 18.5 45t45.5 19h320q27 0 45.5-19t18.5-45zM379 268l-165 113q-6 5-14 3t-8-7v-56h-96q-13 0-22.5-9.5t-9.5-22.5v-64q0-14 9.5-23t22.5-9h96v-57q0-5 8-6.5t14 2.5l165 113q5 5 5 11.5t-5 11.5z" />
<glyph unicode="&#xe63d;" d="M896-64h-64q-26 0-45 19t-19 45.5 19 45 45 18.5h32q13 0 22.5 9.5t9.5 22.5v32q0 27 18.5 45.5t45 18.5 45.5-18.5 19-45.5v-64q0-53-37.5-90.5t-90.5-37.5zM960 704q-27 0-45.5 19t-18.5 45v32q0 13-9.5 22.5t-22.5 9.5h-32q-26 0-45 18.5t-19 45.5 19 45.5 45 18.5h64q53 0 90.5-37.5t37.5-90.5v-64q0-27-18.5-45.5t-45.5-18.5zM832 512q0-80-56-136t-136-56h-64v-64q0-27-18.5-45.5t-45-18.5-45.5 19-19 45v384q0 27 19 45.5t45 18.5h128q80 0 136-56t56-136zM640 576h-64v-128h64q26 0 45 19t19 45.5-18.5 45-45.5 18.5zM256.5 192q-26.5 0-45.5 19t-19 45v384q0 27 19 45.5t45 18.5 45-18.5 19-45.5v-384q0-27-18.5-45.5t-45-18.5zM192 832h-32q-13 0-22.5-9.5t-9.5-22.5v-32q0-27-18.5-45.5t-45-18.5-45.5 19-19 45v64q0 53 37.5 90.5t90.5 37.5h64q26 0 45-18.5t19-45-18.5-45.5-45.5-19zM64.5 192q26.5 0 45-18.5t18.5-45.5v-32q0-13 9.5-22.5t22.5-9.5h32q26 0 45-18.5t19-45-19-45.5-45-19h-64q-53 0-90.5 37.5t-37.5 90.5v64q0 27 19 45.5t45.5 18.5z" />
<glyph unicode="&#xe63e;" d="M192-64l1 1q-88 4-138 54-50 49-54 137h-1v320h1q0 72 46.5 162t129.5 173 173 129.5 162 46.5v1h320v-1q88-4 137-54 50-50 54-138l1 1v-832h-832zM960 0l-224 224-288-224h512zM675 247l-355 137-54-376q95 19 202.5 81t206.5 158zM64 96q2-5 8.5-19.5t12.5-27 11-17.5q29-29 53-33.5t77 3.5q-158 323-162 332v-238zM548.5 868.5q-47.5 47.5-148 14t-195-128-128-195 14-148 148-14 195 128 128 195-14 148zM713 285q95 99 157 206.5t81 202.5l-375-54zM926 864q-5 5-17 11t-27 12.5-19 8.5h-237l330-160q8 52 3.5 76t-33.5 52z" />
<glyph unicode="&#xe659;" d="M896 896l128-256h-256zM576 896h256l-128-256zM384 640l128 256 128-256h-256zM192 896h256l-128-256zM0 640l128 256 128-256h-256zM448 0l-448 576h256zM704 576l-192-576-192 576h384zM1024 576l-448-576 192 576h256z" />
<glyph unicode="&#xe663;" d="M896-64h-768q-26 0-45 18.5t-19 45.5v448q0 27 19 45.5t45 18.5h64v128q0 87 43 160.5t116.5 116.5 160.5 43 160.5-43 116.5-116.5 43-160.5v-128h64q27 0 45.5-18.5t18.5-45.5v-448q0-27-18.5-45.5t-45.5-18.5zM384 0h256l-81 201q36 15 58.5 47t22.5 72q0 53-37.5 90.5t-90.5 37.5-90.5-37.5-37.5-90.5q0-40 22.5-72t58.5-47zM704 640q0 80-56 136t-135.5 56-136-56-56.5-136v-128h384v128z" />
<glyph unicode="&#xe66c;" d="M678 128h-332q-47 33-89 76-34-12-65-12-80 0-136 56.5t-56 135.5q0 63 37 112.5t95 69.5q1 6 1 10h758q5-35 5-128 0-45-21-94t-55-91-69.5-75.5-72.5-59.5zM128 448q0 15 1 47-30-17-47.5-46.5t-17.5-64.5q0-53 37.5-90.5t90.5-37.5q4 0 16 2-80 101-80 190zM576 768q0-23 9-55 39-28 51-73h-64q-2 14-5 24-55 38-55 104 0 53 37.5 90.5t90.5 37.5q15 0 32-4-42-11-69-45t-27-79zM384 832q0-23 9-55 55-39 55-105 0-14-5-32h-63q4 18 4 32 0 24-9 56-55 38-55 104 0 53 37.5 90.5t90.5 37.5q15 0 32-4-42-11-69-45t-27-79zM768-64h-512q-55 0-116 21.5t-100.5 52-39.5 54.5h1024q0-24-39.5-54.5t-100.5-52-116-21.5z" />
<glyph unicode="&#xe66d;" d="M1020 526q-25-121-122-195.5t-224-74.5h-192q-38 0-64-32l-61-254q-3-14-15.5-24t-26.5-10h-158q-14 0-21.5 10t-4.5 24l7 30h113q14 0 26.5 10t15.5 24l61 254q26 32 64 32h192q127 0 224 74.5t122 195.5q5 23 6 49v108l2.5-2t3.5-3q36-42 50.5-98t1.5-118zM546 384h-192q-38 0-64-32l-61-254q-3-14-15.5-24t-26.5-10h-158q-14 0-21.5 10t-4.5 24l190 820q3 13 22.5 27.5t34.5 14.5q302-3 339-3 64 0 142-25.5t109-61.5q36-42 50.5-98t1.5-118q-25-121-122-195.5t-224-74.5zM546 768h-96q-32 0-42.5-6.5t-21.5-25.5l-32-122q-4-13 12.5-25.5t30.5-12.5q10 0 43 1t41 1q72 0 115 30.5t43 78.5q0 41-21.5 61t-71.5 20z" />
<glyph unicode="&#xe672;" d="M768 192q-97 0-256 153-159-153-256-153-106 0-181 75t-75 181 75 181 181 75q98 0 256-153 159 153 256 153 106 0 181-75t75-181-75-181-181-75zM256 576q-57 0-92.5-37t-35.5-91 35.5-91 92.5-37q22 0 46.5 13t44 32 35.5 38 25 32l9 13q-3 5-9 13.5t-24.5 31-36.5 39-43 30.5-47 14zM768 576q-22 0-46.5-13t-44-32-35.5-38-25-32l-9-13q3-5 9-14t24.5-31 36.5-38.5 43-30.5 47-14q57 0 92.5 37t35.5 91-35.5 91-92.5 37z" />
<glyph unicode="&#xe677;" d="M576 134v-70h128q26 0 45-18.5t19-45-18.5-45.5-45.5-19h-384q-27 0-45.5 19t-18.5 45.5 18.5 45 45.5 18.5h128v70q-137 23-228.5 129.5t-91.5 248.5q0 26 18.5 45t45.5 19 45.5-19 18.5-45q0-106 75-181t181-75 181 75 75 181q0 26 19 45t45.5 19 45-19 18.5-45q0-142-91.5-248.5t-228.5-129.5zM512 320q-80 0-136 56t-56 136v256q0 80 56 136t136 56 136-56 56-136v-256q0-80-56-136t-136-56z" />
<glyph unicode="&#xe678;" d="M960 288q-27 0-45.5 19t-18.5 45v96q0 104-51.5 192.5t-140 140-192.5 51.5-192.5-51.5-140-140-51.5-192.5v-96q0-26-18.5-45t-45-19-45.5 19-19 45v96q0 104 40.5 199t109 163.5 163.5 109 199 40.5 199-40.5 163.5-109 109-163.5 40.5-199v-96q0-26-18.5-45t-45.5-19zM512 768q87 0 160.5-43t116.5-116.5 43-160.5v-64q0-26-18.5-45t-45-19-45.5 19-19 45v64q0 80-56 136t-136 56-136-56-56-136v-64q0-26-18.5-45t-45-19-45.5 19-19 45v0 64q0 87 43 160.5t116.5 116.5 160.5 43zM512 576q53 0 90.5-37.5t37.5-90.5-37.5-90.5-90.5-37.5-90.5 37.5-37.5 90.5 37.5 90.5 90.5 37.5zM448 256h128q27 0 45.5-18.5t18.5-45.5l-64-192q0-26-18.5-45t-45-19-45.5 19-19 45l-64 192q0 27 18.5 45.5t45.5 18.5z" />
<glyph unicode="&#xe687;" d="M895-64h-767q-27 0-45.5 18.5t-18.5 45.5v895q0 27 18.5 45.5t45.5 18.5h448v-255h-352q-13 0-22.5-9t-9.5-23v-64q0-13 9.5-22.5t22.5-9.5l735-1v-575q0-27-18.5-45.5t-45.5-18.5zM863 416q0 14-9 23t-22 9h-608q-13 0-22.5-9t-9.5-23v-64q0-13 9.5-22.5t22.5-9.5h608q13 0 22 9.5t9 22.5v64zM863 161q0 13-9 22.5t-22 9.5h-608q-13 0-22.5-9.5t-9.5-22.5v-64q0-14 9.5-23t22.5-9h608q13 0 22 9t9 23v64zM640 960q26 0 44-18l256-257q19-19 19-46h-319v321z" />
</font>
</defs>
</svg>
